<mxfile host="65bd71144e">
    <diagram id="uEXJJrO0DhDbDHVcbahO" name="ページ1">
        <mxGraphModel dx="214" dy="430" grid="1" gridSize="10" guides="1" tooltips="1" connect="1" arrows="1" fold="1" page="1" pageScale="1" pageWidth="1169" pageHeight="827" math="0" shadow="0">
            <root>
                <mxCell id="0"/>
                <mxCell id="1" parent="0"/>
                <mxCell id="75" value="&lt;font color=&quot;#000000&quot;&gt;テストユーティリティ&lt;br&gt;&lt;br&gt;&lt;br&gt;&lt;br&gt;&lt;br&gt;&lt;br&gt;&lt;br&gt;&lt;br&gt;&lt;/font&gt;" style="rounded=0;whiteSpace=wrap;html=1;fontFamily=Noto Sans JP;fontSize=18;strokeWidth=2;fontSource=https%3A%2F%2Ffonts.googleapis.com%2Fcss%3Ffamily%3DNoto%2BSans%2BJP;fillColor=#FFFFFF;strokeColor=#000000;" parent="1" vertex="1">
                    <mxGeometry x="718.7799999999999" y="135.58" width="160" height="196.11" as="geometry"/>
                </mxCell>
                <mxCell id="74" value="&lt;font color=&quot;#000000&quot;&gt;インフラストラクチャー層&lt;br&gt;&lt;br&gt;&lt;br&gt;&lt;br&gt;&lt;br&gt;&lt;br&gt;&lt;br&gt;&lt;br&gt;&lt;/font&gt;" style="rounded=0;whiteSpace=wrap;html=1;fontFamily=Noto Sans JP;fontSize=18;strokeWidth=2;fontSource=https%3A%2F%2Ffonts.googleapis.com%2Fcss%3Ffamily%3DNoto%2BSans%2BJP;fillColor=#FFFFFF;strokeColor=#000000;" parent="1" vertex="1">
                    <mxGeometry x="550.8199999999999" y="135.58" width="160" height="196.11" as="geometry"/>
                </mxCell>
                <mxCell id="69" value="&lt;div&gt;&lt;span style=&quot;color: rgb(0 , 0 , 0)&quot;&gt;共通ユーティリティ&lt;/span&gt;&lt;/div&gt;" style="rounded=1;whiteSpace=wrap;html=1;fontFamily=Noto Sans JP;fontSize=18;strokeWidth=2;fontSource=https%3A%2F%2Ffonts.googleapis.com%2Fcss%3Ffamily%3DNoto%2BSans%2BJP;fillColor=#FFFFFF;align=left;strokeColor=#000000;" parent="1" vertex="1">
                    <mxGeometry x="209.79" y="331.69" width="670.21" height="46.31" as="geometry"/>
                </mxCell>
                <mxCell id="55" value="&lt;font color=&quot;#000000&quot;&gt;プレゼンテーション層&lt;br&gt;&lt;br&gt;&lt;br&gt;&lt;br&gt;&lt;br&gt;&lt;br&gt;&lt;br&gt;&lt;br&gt;&lt;/font&gt;" style="rounded=0;whiteSpace=wrap;html=1;fontFamily=Noto Sans JP;fontSize=18;strokeWidth=2;fontSource=https%3A%2F%2Ffonts.googleapis.com%2Fcss%3Ffamily%3DNoto%2BSans%2BJP;fillColor=#FFFFFF;strokeColor=#000000;" parent="1" vertex="1">
                    <mxGeometry x="213" y="135.58" width="160" height="196.11" as="geometry"/>
                </mxCell>
                <mxCell id="2" value="Spring Boot" style="rounded=0;whiteSpace=wrap;html=1;fontFamily=Noto Sans JP;fontSize=18;fillColor=#006EAF;fontColor=#ffffff;strokeColor=#FFFFFF;strokeWidth=2;verticalAlign=bottom;spacingBottom=8;spacingLeft=29;fontSource=https%3A%2F%2Ffonts.googleapis.com%2Fcss%3Ffamily%3DNoto%2BSans%2BJP;" parent="1" vertex="1">
                    <mxGeometry x="209.94" y="380" width="670.06" height="130.94" as="geometry"/>
                </mxCell>
                <mxCell id="3" value="Java" style="rounded=0;whiteSpace=wrap;html=1;fontFamily=Noto Sans JP;fontSize=18;fillColor=#6a00ff;fontColor=#ffffff;strokeColor=#FFFFFF;strokeWidth=2;spacingLeft=18;align=center;fontSource=https%3A%2F%2Ffonts.googleapis.com%2Fcss%3Ffamily%3DNoto%2BSans%2BJP;" parent="1" vertex="1">
                    <mxGeometry x="209.94" y="510.94" width="670.06" height="59.06" as="geometry"/>
                </mxCell>
                <mxCell id="5" value="Spring Core" style="rounded=0;whiteSpace=wrap;html=1;fontFamily=Noto Sans JP;fontSize=18;fillColor=#85D2FF;fontColor=#000000;strokeColor=#85D2FF;strokeWidth=2;spacingLeft=15;fontSource=https%3A%2F%2Ffonts.googleapis.com%2Fcss%3Ffamily%3DNoto%2BSans%2BJP;" parent="1" vertex="1">
                    <mxGeometry x="221.20752827055384" y="391.3422818791946" width="617.523789440388" height="56.107382550335565" as="geometry"/>
                </mxCell>
                <mxCell id="7" value="Springdoc-openapi" style="rounded=0;whiteSpace=wrap;html=1;fontFamily=Noto Sans JP;fontSize=15;fillColor=#85D2FF;fontColor=#000000;strokeColor=#85D2FF;strokeWidth=2;fontSource=https%3A%2F%2Ffonts.googleapis.com%2Fcss%3Ffamily%3DNoto%2BSans%2BJP;" parent="1" vertex="1">
                    <mxGeometry x="222.99999999999997" y="190" width="140" height="36.11" as="geometry"/>
                </mxCell>
                <mxCell id="39" value="" style="shape=image;imageAspect=0;aspect=fixed;verticalLabelPosition=bottom;verticalAlign=top;image=data:image/png,iVBORw0KGgoAAAANSUhEUgAAAOEAAADhCAMAAAAJbSJIAAAAzFBMVEX///8AdL3qLS4AcrwAbLoAb7sAbrsAarkAa7kAaLjqKSrqJSbpFxja6vUAdb7pHh9yqdXpDxHpGhvt9fr1+v3pICH729v++Pi71er85+f5yclHisb61NT5zs7//Pz97u6Wvd5cndDva2zoAAD4wsKxz+fG3e7V5/PxgoLsR0j1paXsQUL2sLDzlZXyioqlxuODstlOk8sthsXuXV7tT1DrOjvwdnb0n5/uWlv3uroZfsIAYrZOl82ryONmo9KYvt/wcHGMtdpepNN/q9UM0kbMAAAPV0lEQVR4nO1cCXeaShSODMwACqJoxNokkERotrI0SVPiUp///z+9GRYFQeOGOJx+57zz2row17nLd+/cOxcX//APR8F12QsoHH/6Za+gaPQfyl5B4Wg/lr2CovGrfVP2EgrGz9aPspdQMH63WxXfxD/t5u+y11AsvjXEirvT7y2mfVn2IgrFJZaw2gED72H9vexFFIqrBiM+9MpeRZG4bzCMWOl48dhmmFal6fdLF0tYaWd6W8cSXpW9iiLBiFjC72WvokD0W0zFtfS5zVTc0/zCZljpaNEjW1jpiB8oaf227GUUiFfsSZnmS9nLKA7fMGVjmEaFw2HoZ5jqmuEVCYaVNsM3MVDS+7LXURgeAysUm2WvozD0u8EWdn+WvZDCELiZKlO2l0BHmW5lizTfAj+Kw31V84p+U6z2FvbeQiMUuxW1wt5HN9TRRlXPLG6boYDiU9krKQi37VDAqpagrhcCtquZNvUWAtZfK9lr0vuIbJARG5X0ozdPkRfFRvin7MUUgUumHgvYqKQR3ofpRMDWKpn3PjYWAtarWEG8fm/F8jGi+KWAPer8UP+1uRSQ+WL5N8/vz7Rt8tXSxzBifWPK1H/+dfdOXaH/sS0uBWxsOE3r/fno3j1RlzRe/12aICM21wp4ffW31Wgwz6dc21GQNEHsZNYJ2P/90KqLrR/UKejFfcIEmbq4RgOvbutYk9tvFKYbLy0xIeAaL/r81MA/Q53GbKP3t7GUj2m+5qlg75EJuEDjlToPg4noQ8IEmfZtTpDrPb4F8tXbNJY07psJE2Ry24Gf38JA0qYvRGA8Jk1QbOT0IN6H+8eINFrgxfWPRBTEPuZb5h2Xt9FP0HyisaWm99FOCNh9yjrRl26kw6132kgoQSKbJ27yV0aGy6d2rL70kZiLVDbP5Cb0L3divLs0upiL7/Wkj8mWZPqvjfW7SwO+d1MCZs6xv4nxDrfoPCBNC5il2r/jKEKpCV5cplSUyZjZIoqIbTq7FG6YpIDdjIDvsQmKzWyIpAG9p4QXFdsZFV1U9cU2hZkSwW03KWBml/4ueECDzh2MOxAiT5lxJD8XL9Na1f+e5KLtTDLxvBCQ1qr+tZhM6D9WX75sxi/Xf5WxvCPgZ6rmtEq2rx/qa1+jBP0k225njHBpo9TOq/1ISJjV0ZuFjYr1MlZ3BNwkycxdlsss5M9uLyV4TkSK7FRhfyl/k76qb4j3BJvJDsL8XsR6etuCE4Q0K8T163ILKY2FF7275RZme5v7Sy5ArRleJg553zKW9tzeID4lSDC2HEtLRJIGpZQ0KWEzG9E/lkZK7TUKCUvLmYN5S7ghWm/7uF56mmxmf5FkrG+0drQtt6meDenJCji1c7E/lqlDVsJUXkVre/eSteVI+JSQkLmjlLbdLAJCPZv+3SbL/F1afc1Cipwxipdk7kjtnMX94jQiW0f7kyxR5WSPlOAhMrYcbn2TdKb4N6A0y499TV6h6SNpiIzYprRSE4XEvHDxmN7E+msJyzsC7iPmlkOub5IRkaF3GCFyp3lp/HtKTbGx0slsotHQvMnJy7u0hPUnKo9/o/He3Jh+u7qJlJK3ePw162v6jbSETPb8mwpEVdO8EeafaXfKiAyd/DS8SYDJmZ7svaXdKdOklJ/+DrSx+zf7yrdVPaWVn74HCX1eSW1VT5t0dptcXLwGd3rkFSse0v5UZCgtaIT9GHkb1K+nTZHagsZlQNHylv8trafU1r8vrkjrb+4VUI/Jo36a78W4Jxytnbf+92TvN7VFqYsoV2zlNc08VKHsRkBEzL0j6XvCFKk9aQtALC735ou/y5BBr6cJ8LuVf9CU2ETaL03EqVRu68zCEum/OAKL2M1J9392K2GGAZ7vcvr3lsXTKlzf8qchZpPhq/iKIXrjfQL33ayeRkf+tGbAq7hqZqoV0YE4rT2mGVy2nlZypPCAo00zn0mjX1/pTQgOoip1fUt/Jckg/VH1p+2MULW06Wymj02piJUdDTcpiyN9qOtGgtOwZgOZ5SEHIYuAr5gFLW8bqKY2tO2hutWbX5rbCaj5nwLLcZDlQK1WA4BDvn3gOndHRzWnc9cXPj9lY7ylHt0wYv7M8woUztVNS5LMsSGzREYsJfJOuo+WPfEAggghV7c6W3/sZ7OVN/O8CklbaoRq+7AWygj1PVa6DzrDiU/Uh2OF0Xg75YxweXe3Dxt1hEhEXtnj07tCtV2BGAeAnDvefvMC9Lp7Xpxg1kJNraGiRewMDTYwC8D7s91d+MfeU78WiETkC/U30txHXGT0u24fwY8DmJoWKyooLjZqLowtHoz3+YLvB52Kzrnw4ZxxyLdswNBHkZ7UgLeTd9kJHXWdY+7I0eOFQjZR8xbyYWsvREBVMqfKwJuu/XIn0iA4K+Dp84R8WMI9THATJHPoGJ4PhE+wyY1YsY14x308gS7UkgCedZSvVa2hPR/hyMqykAMAypvdZMePvcDxdcjlamkR0UC39ntMR8XaOJw6iutzAkKQWxg3N/9KNQbRe+FxfuAkhgKorcgIkTwwZkNMHdWNCyMSSZZpDm3dmRiu58sAIRaSPVt+JyFHg6+XPYo+wRZAT7UaDzJCAkz8MbmRZd/33NHImEyUCJOJYYxc1/N8X5ZlrH8sT4TiiFjp7yFfggRf2SoxiSWEhRDwoQsQtypkuEZA/gPcCiJhVkVKfo5jWdkfTc1t9d0rTksDSMOJx/Jcrpi7AIT7BjxXsXcy5iI9zeIZqqZjMQXEhnu0k1iApLO8IHDeaK4PvzDfPFiRvwN+EbKloJrjKfaF2EHAwNPDpVouEfwbJG+AQSzwPWM+HWs7pJKr0KN4yM2PKMtmdIiT1MbTmaNMiGdxBxHwH0eGMVGc2dQeal/62y0Rm6FQZsWmSJgoUtICKM15wI23UCt7JQVhGDFHzi17JQVBjXInwBUUDEuHEYUKdPqi6Z4MfEfobCggW1SCvw6q7Q9P8ZyyjFBSwOdeBZtdYUZVb+geOffeDFXhIDc4xZPMyAb50UkFtAkHh6ewey0k+wBNTvCwJZQgKT7FOcI4rBHtWcHcGw4fRif5oMqeatnKYPrFk0IBee+0h6QqBHFWpO8VLTrW0Bn5MqkRsJuUrzMKwgSHiqggboKGFokfFLzZ0Ops6QM6WDSceXE4xYRxggn9tdtj1oiTAax78lNuiU1kvwBn7Ej2XGM+s0lpSlLVzkJi/CeVFKPMoe4oricLAqmvpXNnAJ38H2hGNBTwXhlcW0G1NMIcniTxLCClKQySKXpBNQqwAr9aX0uL6OtZGS0Pp7xA8E7CKbJQ0NoaRlyAilH7stwBAPzMuGWHB9j+BuXlSprPHlqTiqXj5YGzmrdrMgtYWSk3kbAHAjxQOg4KNdfJlhMtV2CRa5+E1G+E5fgC5L6WJGfjAMciwZ/k1hPVifDp6efSJCTZI5ljt66iBsVSHChkTxmbayKMgwb2uYgXQdJmhudzOMTl1O0jrxM4WgRlf2A4w41NXNKWrUcnBzlS0ucTdxAEhwTwhvkkWDpTLNlRyoqloxNEeUnCsT8M/pWQ6h/+4R/+oXCcpmhaGtSpd9oSyokhGUhwyl5EgVAniKvxVT0swbB8klkU1i1YPlQ5JNncrpWUjjlWPIMC96TEGTBA0Jia6tcMtKOa9mwkB+UoDq0pQJ0RvGTjFuQF2XMncz2styUX3yE8HGcehuujoIwYfQjK+1VbTwdjtaMvbJpBPBeU2+LWDM/3a1H2uJoRs3lFtjOCtbbglu6t2VRtg8A553202Q0Viy0BoDA64/YKDexTiEpLiECpU1tfQTWEA3r5ADn2sM/aEi8IbePgfjJyLNjQuH5OkGZefu/pxs1D/tYDb+cAa+YiHm7Xj0l6nrmdBt5OhY45tGfOfDbO9wuqNvNg2HWfKymI+qZZbz4+P6reMXVCtUj5E/je6L+12iVp08nA97EOkggPAwSHbogjVVPFPsuJXkl3awJph0WeMt4qm1cly9Tsqe4EmOnhwekhWqkWF0+wF4HkPJoTBtOD1nggZgW1mgw9njhJgOljyV5dFQbH/33VmRzwTgDd8llVh0P6sb9yJofZHzztBPUaaPDYlYSxHBGVje0uJ4PqA/aoLTWqG0+rgbOowZgyAP4xPUFYYAp19IumrFNAUhDg5GOyBCk5VlbgROx2MA0Aa2hw1GV4SdIFwLS8MNjRFJnlsITH7fI0+TSfhGiinV7Ijjp0PIHnSDCeHfnxWlrCGmkNlI3p6XIBVRo6ho8I2cBcKidDPlRj1Zxcjwxx+e5MK5g3S+bYGXkyDKdnAYe4vAKHfXCAtmr5+SwgyZE3mR4ygJaLjqXZM8OTUTTzHJg/hPIkl0tN0eFPVOeYr60b/STjkYLskV5LzSLNFrt/f9iRidMP3VFGng8FgYfJnkzA8WDg5IcH1fg8ylGXao84Aa4vTQTzhSwvwJrvDdxgEk+3x5pJYGFIC+C/BP+qaWOcTpERYTcoEUMB8WGLUS3tujmEc2RtnanZmGsdS4M65nSCzR2tbwsNVhQPAcOg2E3GtGFq3DIcsySvkJQ4HsWs5Zg6qQAgMNLXdYNdkKsrWHDs2TXJtBXXlyGfV5Nfj0S9e5s3c/j7seLrGz2ZapOJ8oIGn1TLnDrGAFsMz27e010QnnIInO9OZtoXxYOOOQEs3npU7IF6R5Ww05uPPCAIi77mnSeeA8VFCAk17K70obWFrzIdP6hXcv7pMjm8q0PbmYzIJQlh42Hg6aOp5zTCK9eCiWgAZN81lNl4c39iCpi5wSCVA2hSEoEM74UInOXMmWN3OTEiTIJ7Fhw9GHgOjhV3++aONTVgeK1RjWPd8ytCHgTV1DF1iyIWZm+jcyg1HA3WUBnIbNxgDQDPKudYZ90LKo5OHkLskuFwLHBPOnJxWGV3LYib1skVhYkra8LbEo1Td0VLjjeY6Jp5LEGxUx7PJi6m3XyaJXKwtPObjjZhPwW2Rm66wD7S2kPWjkSuy3QMzJbIHS4rJCI4wJENewN9Kx6Wbfg47CMC/D/Z90Y42ZjpNhaZ8G9rhXlrw7GNY8lcIdcMBR9cEIYVjsNzPk7Qtr6zplBIpo4pKxSi64MCio1/fMTzgdgL4L/xPLkCZcHJMzyHUAIy/2YoU3PXmFk0OmrQCoTNSBBQ8q6kHD6XaD6JJ93IL1HzRspsitnbuY8qkJR2jFnrZETuu5LlnLuVAvGCe6UGI0zdSEJJc+9tOHQRmWKUE6tnv0//cCb4H7+rVxJ00SHiAAAAAElFTkSuQmCC;fontFamily=Noto Sans JP;fontSource=https%3A%2F%2Ffonts.googleapis.com%2Fcss%3Ffamily%3DNoto%2BSans%2BJP;" parent="1" vertex="1">
                    <mxGeometry x="411.9637820597309" y="519.7986577181207" width="41.34228187919463" height="41.34228187919463" as="geometry"/>
                </mxCell>
                <mxCell id="44" value="" style="shape=image;imageAspect=0;aspect=fixed;verticalLabelPosition=bottom;verticalAlign=top;fontSize=15;image=data:image/png,iVBORw0KGgoAAAANSUhEUgAAAKkAAACZCAYAAABUrxqCAAAAAXNSR0IArs4c6QAAGAZJREFUeF7tXXl4VUWWP0leNgKCCMKABszIvtggNCgSdkEQYivmE1pbgssnNqIgMIRFZEc2m0VgsAUaGRiBcWNEdsIiyiKO4IbQKpuAASQEE8g63+8+auYRk7yqe28tj9z3D/qlbtWpU786deqcU+eEFRYWFpL38zhgMAfCPJAavDoeaRYHPJB6QDCeAx5IjV8ij0APpB4GjOeAB1Ljl8gj0AOphwHjOeCB1Pgl8gi8oUB6/OL3dCrjR7qQlV4mVzbaF01xUTdR/M11qOZNCTcMD0IepADm5qOrad/Payk7/yJFhZeDZe2GWSDxiRRSTkEWVYisRm1rPUptanUPecCGLEhPXfqBVh+aS4fPf2qtoy88Wnw9b+AvCgrzKbcgm3zhMdTiX7pT93pPUPUK8SE545ADKZi/9tsltPGfS6mgMM8DJwfsruZfpvJRlalT7SepR4PHOb4wq0lIgfRyTgbN2T2Efsr4giLDy1F4WIRZ3DSYGr9kzaKGVdrR862nUFREjMHUXk9ayID0TOZxmrbrKcrOzfSkpwN4QapWiY2nke2XUvmoig56UvdpSIAUAJ3z6Yv065XTHkBdwEZewVW6NS6BhrVdEBJANR6kOKam7RhAxzIOegB1AaCsC0jU5tW703OtJrjYq5yujAfpR98upw++f52iI8rL4UAZ7hVAfab5dGp5e0ejuWA0SHFRGra+K4WH+bxLkgQY4ZSK9sXSjG7rjeav0SBdvH8SfXbqXU+KSgBo4LHfo84ASmr4tMRRnHVtLEjhSXp128MUF3mLsxl6XwflwNX8TJrWdQNViqkatK2OBkaCFMfQnN1DLW+S50mSDwvc9lvW6En9W4ySP5iNEYwE6f6T22j+vhc8KWpjQe1+8lvueRqZuILuvKWp3S6kfWccSHPyr9CrW/rQxau/UESYT9rEvY6v5wCkaa2KTWl44gLjLlHGgfSDb/5OHx2ZT9ERFTwcKeYAdNM/NxlL7RKSFI9c+nBGgRSepUnbnyDopJ5fXj1OwPcYXxyN67TKKE+UUSBdsGckHTy71bssqcfn/40IA3/nhBRKbjJQIxXXD20MSGFyemVbLytY1/vp5cCFqz/QGz0OGGOSMgakY7f0pfSsY95lSS8+rdFxiap3yz30UpvXDaDGkAwm23/4gP7x5SjP5GQEJPxEwCT18r2LqVG1P2qnSrskhX9+clo/yriaHvKXpfzCPGtBwyjshpjLbRXq09C2b2gPkNYO0lA3ObG3RJHhsVSlXDxFR8TSuezjdDnnAkWERYb0JRDS9Mm7Jmk3SWkFKUxOE9L6WtInFE1O0N1iIytQn8ap1KDa3deZbY6eP0hrvppH31/YHbJqDDNJjemwXOslSitIp25/NmSDmf3R7XfQqPZLSj0OVx2aR+uPLgxZoMIk1brmw1r9+tpA+vXZvTT7s+dC0rPEJMyw+97keiYcypsRpxyAOrrdSoqvVFfLJUobSMdu6UPpWcdD0uSERROJwcTRP2v3gJCcqwkmKS0gDXWTE4760e1XCGUGGbnxTyFtwcjMPUvD7l2mxSSlHKQXr6TTmM29Q9Y/j6O+YnRVGp64SOgy8bdPBod0fCyb96udVio3SSkH6fIvZtCO4yu1PwmxG8RiF6RO4hIwpgkWEERJJdUdojwLilKQwj8/dWeKNt2M2TRhvywXWZGy8y5TXsEVgo2T1wSmCqSMVrySZdlGMnPOWbmddMXZil4Y3bplKQWpziMPeiSeonROeIKa1Ui0Fh4B1odO76WtP71NWbkZXIZ3FSBltCbVG2jZX+OiKtCV3Gw6mfFPWnt4EZ2+/L22k0iHSUoZSPEkZNHnQ7UwF8dU7YrN6PnWU4vVIwHWWbsGcdlsZYOUx/4K2+u6o/O0RYyBxtTEZcpMUspA+vzaNlp82nDtdazdjx5vNrTU0wdATd2YRFfyfiv16JcJUhEPD9v0IqqKW8cvYhQqRd9Kk+9/z60uS+1HCUg3H1lNq76ZotRwz3S6XvVeoAfr9+Ni5qfHNtCS/xlZqrSXCVI79tf5e1+mK3lZyvVUbP5nms+ke2p15eKtk0bSQQqTU+rGnsqzkGDBkxuOoM51HuXmD2IJpu96plRpKhekmTS63X8KHaNwFCz+fKzyh4sqTVLSQbr08ym0++QapbooDM8pd70mHL3DEzYoE6Q4Rid3eV/I/oodCKsJNhe+V3nzh67fq94g7pOKW1oUaSgVpNjlk3f0VRpcYReg4Auk/oRtj4eUJGXrifTseMSoOpYVl6ixHVZxxTAYCVLVgRVOH5HxWCBkSlKn9EMoTNyRrPTWD5A2rdaRBrSabBeDQb+TJkl5LiFBqRNogAVuVr2rI2bxBL3IBKkbxnL/JXWqUvUKQB3Yao40v74UkMKcM2JjT7qal83tyRHA4++aMpOIkxTbvBn8ZIKURRwhC/PgNrOFdVPGmIV7xtCBM+uUARX8r1ounsZ1WulkGUv8VgpI/U9CFihjkpM8RtBDF+4ZRT9c3M9lIpMNUgZU/Ptym0W2cjNBSExKS1EaCikz+4nrIMWiv/RxW2V6EQD6SP0RtoIeoMMt2DuM2yUK4KgAKRsnO+8i9W08VsiMxsQR5jZtVz+ujeeG+ANfULJodo8016OkXAcpjk1Up1ORspEd8xO7rBFWK/Ay4K0Do4QN4apAyoCKgmEiDolAwMF9uvmHJcpONKcXv5I2i6sgVb17ccS82HqhsMIOu+LE7Y/ZqgWlEqRs0eyGyOHYf/njrkpjdwHU8R3fc9Uk5RpIsXgqq4SwVIUj2i0SOq3gVRqf1se2PVEHSDFBpL4Z3GoZtbitg9B88QriPw6NU3bsyzBJuQZS1U9CcNSPave20BMO5lFykvtUF0iBTDgqxnf4UMhtiu/wdMXJnIV2xbXsJ8+3nCu8oaQe91j8sVuSg0YQiU62pPbYrXdV6yJcgwjR8V+c2eBIR9MJUrumNtU2a2aSGttxufBdobg1d0WSqn4SYueJrf/YG+8IoCpv9yVtUDtBx36TVH+lCeFAZ1LdwbasLkXn7hikqk1OLOPboHtncO9SN+tB6ZSk/3+Rukwvtl4gdGH0F22bpUw3Ba0wDy7std+xScoxSFU/CcHERfUdXm8SjzpiAkhxnMb6ytPMBzbwkGy1gTAZv62vMi8gxoQ0TYzvEzTgPNgkHIEUtsbpu/+izHDPXnjO7rGVW4oiOmjUlu6u0WgCSP0AEM9vr9KGzYBn97IXCFzbIIWeM2PnX+lk5nfKYhhx1Le5vbfQznR7YUwBKQtGmd5tHfeGhVCZubu/0tBJO+qZazqpjichooldccQN39DN8WUpkGmmgJTpfCKqDwTLS+s6KRMqgc6IZ++eadskZUuSqjY5BR4dix/6mltyyAh0MQmkdqSUkyQVwXTHkv7OTFLBMhC6aidVHQoG4jFRZB4e2f4tLl5hI03fOcB1s4tJIGXSdHLnddxuSNUeqEBp2qPO87YK7QpLUr/fu4+rRygP6nBTFAm08McRpLhOp2kgFbVH6iwsDMk/5f61wnGywiBV/SSEAVg0+lvGUW+CMb/ohhatFIJN1v/9Rq5ZO3gETOAa2vEUCoFUtcmpKAPgq69eIZ6LL9hMxy997folwTRJKpJQgjFOZxpKOyYpbpCywrQ6qoSwhZhy/wdc3guZFzvTQMpspsPvW8odxa/j8sQ2CO4W8Tc1Eiq0yw3S//5uKX14eI5St1rgxEQuTdC7XtvZn9sKwCWarzUyFaTJDVO5I/j9aznXdX2dl4+i2U+4QMqTNIGXQDvtRGMU/fn4B0hZBBNBCv60qplE/e5O5WKv6qiookQxSw1vjSgukOouwiC6CDLNLKaCVKTMItZz3p5BSp74lLRrsKa8Dw25QOq2a5Fruwc0En07I+tmb+Lt3o4NGea5mZ88qxWkIsnZgoIUkmP0pt5aixKITAiLhvjWT06skbIIJkpS0FSl3O3c795NqIbCLlA8z3+CglRHiFdRSSuaIa8sghTFJnhfzZoAUrbZeQpFBAUpy9gmekS72V7U2yQbpDG+OOItNMb4IMtuG6iC8Ca1NQWk0b5YeqXDiqAeqKAgNUV/6ZyQQslNBnJhX6ZOyuySIk+pZdptmU5atVwtGtdpBRd/TAApCI2MiKLh970V1EETEiAVjSOVHUYo+pxadhIxEf0O4DDhds9204jEJUFf/HKBVHfJQZPspIy5vHqyijdg4E/LGj25i9TuO7GV3jwwTIodmUuUX0tXhOPeFUmK5xdTd6Twji2lnaikUHWc4QkHPD2JCT2LdddCYi0+MEb6U29Rnd3/KO917SCFbj+u06rrSrAXB6CgklS2PsWDanYT5L298mRs5hmXpw2AmlCpBTW5NZHq3drU+iT98mn68swu+vLsJgoLi3A9yOX31g+xdEO67d7sssdrNgsKUnQ4Oe0ppW+Zii4CQMp7E2Tfjt3S1/WA55JAC0mPyno4dvHzhUdRRFiUFDttcbxBNT+RCDHd64k5iKhwXCDVGVzCFkXEjYZvVGeU45G6MtqI+sFBw7MfNNcSKBQ4f5EgEy6QQi+dmNZXiWQoaSF5Lyrse9UZ/mQAkKdPUZcxEraN2Hy/lqBnNh8Weslra+YCKTpXnQSi6AKJRqD73zg9R+eyTkgJ2eMBkIo2olmu/RFQqVolqag1ghukOsrd/P6CcJkWJX3Ovfaqc1RxE+ZSQ/8rzFo0qv1irmBwDCvTG8c7LdEcptwgBQFupqvhnVBgO9GnB1BTxmzppTQZgp152f1GNLkujtlh67tLN4mVNh/QLPpqVAikOEKHfNxB21Ehag8Es3Q+lbALPt7vRBOC6ajzFDgXbBL85j64XUgFEwIpBtBpCLaT91L3wvACTrSdaPgi+tdt8YAUTfnDFOGiucIg1X1kQHq82uFdoWzHui99ogAM1h5rUEiFNK3ruqDeGtaX7osk0595g2ACeSAMUnys84YoGmwCem803dROWSCUpJy/7wVt+jkkv2hOVQZUWyDFx7qkE9NrJnV5L2gcYuBu9IfvzdemTweTjrx/F43AYv3KjGcNRrud7NSOJSk6QDD0lB1/0WLgt6OPAdwqq6MEWzg7f2f5WUVcoBhHZ0ywHZd2Ud7YlqToSJcd0k7WDtALbwvqwl/J+03odmkHUDK+EXElBo6vKzUSaMBlqVe9QfRg/X62WeIIpG7mohedgag7kPWvI5Gs6NyKaw+AJtV7STgrnU73sGjmmZL45Aik6BRR5yu+GqdFIccuHd/x/aDPD4pOHhe/efufpsrRCW7gR3ofmGez6t1slUnnKY8uawJwvgxsucB28lzHF6fAiQ35uIvSggFsbFF/fiDNLIFEZHg5o49+ALR1zUe4o+4D56hTgGBtbr+pEXc+2dI2imNJis5lprUJtsvtVCNhfUKivn1wvPW/EWG+YEMp/zsA2jmhP/VuPEB4I0H/nrT9CaV1RQMZBJCmJi4TsmdLO+5ZxzpNUqIB0YHMsFNOXDZaocvlFmRZT1M613lUeDh8/+97x9DBs1u1WV9a13zYlvQvbrKuSFJ0rNMk5eTYB+24AM7ZPYSO/rqHYn2VhKWWMIpK+QAXQl94DP31j68LFRML7BKu6//6bqqWe4IbJqei7HENpOjY7xterMVgjmO/253Pcb/NLw4n0FPXfDPLKpIVHVHeTewF7QsbLb8whxLj+1Jy04HcoXdFO9adXA7r0LfxWFsngPTjnkkklYVwi04K4Ppzk1eoXUJSUFCU1ACP+DYeeYe2/bic8gtzKTI8VqpkBThBd8savajLnY9xJ8Itjn5WEkg2zSXxzk58K89CuSpJMaDqkuKBk2S6nEjW45KYBH//piPv0KFf0igz55x1BLt1ufLTmW1tgDqVW1KXO/vYPtoZ/SyAJD3ruGt08gAosI1onS3e/l0HKQZWXV+9KFARITSi7RJXbpaQTvtPpNHeU+vpxKWvLekaERYp9FQZoCwozLO+xa9CVBVKrPUoNauR6AqNSBU/a9cgOpZxUMtFCXNyei8oDbBSQKr7qQmOHUi9F++Z6+j4LMo4APZI+iE6fO4AHc/41gJtdv5FCqfizVcFlGf9rXpcHYqv2JgaVG1Bd1Ru4AowGW2sTPjpy4eV69FFpahIPSleKYp2UkCKjnVHxAOo+PVvNtGxx6M0hgK4l678SplXL1rNsnN/o9jIOIr2xVD5qEp0a/ma0nRalib+1yuntUlQzNmui5oXqNJACmPytF1PafFEscmzY/axxqmOLlO8zFTZDia/2Z++QFm5GVoByrLLjGy/lDsAW5RP0kAKQmSnYOSdLDNPPdTwadumHd6xVLSDp2z5wQlWdL5blzm7dNspaS46llSQ6q5aEsgMlrOpX/PRwgEpokyV1R5Sa9mBabT75GoyIebATvYUO7yRClIQhGcL8/YN0JoxgzGG2SQfqT+CejR43A6/tH0DI/0bewdbOadUOxpKmjSinEYnrnL1clrcWNJBamJEPKRq7YrNKLnJi9IZ7BTV0O3XHX6bPjv1rnTHggit2PB26oSKjMHaSgcpBoKS/8q2XkZI00Cpiv8Go3s2SAmabdgOc518A1Vpy9HVtOPYasuZYIr0ZHOCFP3bAzuF3pnZ5YcSkII43Sapkhjk95nn0r239aaO//qIqzZMO4sCkxa8dtuPvUOXcy4YJT3ZfGSbnIryTRlIwfxRm/5kjY98mqb9AFYY5uve3IY63JFMDao1VyIlwAeoRN/+8jnt+Ol92vfzh5ZJSZf/Pdi6uPUkJNg4gX9XBlIM6s9+MktLlBQvU1hCXLRvWCWRWt3WjeJvrkNV42q4ar6Crnk+6wztObGJvkpPs6Qm3K0AqMk/u1lInMxJKUiZCy8965h2+x4P05gqAH2wcmxNqlWxEcVXrEu1K9ezvEkxkbFWVueoiGjyhUde12Vegd9Pn5N/lfIKcujcb6fpVMaPdCLjiOVSPZ990tI1AczwMJ+Rp0tRHjH//KB7ZyilVylIMWndmTR4wFlcG0jYwsJ8K+YToIvxVaRYX3kqH3WL9S+KFOCFAH5X87Ktf7NyL1kSMjPngvW0Fz+kKUce/TAKU7rQducd+B3m4EaEmSgtykEKAnU9NRFlTrD2LCcT2gHA1+lR1/TuUARjcfN2moUkGC9L+7sWkJqQEtsJ08rit3Atz+nxiTT/vHEgBUG60xCWRaDZnTOkaFLdwdq8dFokKZgFY3Xqxl7antzaXbCy9p1oDS0Z/NEGUkxGdg1QGQwra31Cij579wypMbnBeKoVpNil47Y+oawoWDBmeH+/ngMyn4SI8ForSEGo7ie4Iswqa20B0tHtV2iPa9AOUiz8wj1jrDqcpntbyhJIVfvnjbzdBxIFk9QrWx8y2l1algDKsmm/1vUjLSanorw2QpJ6JimztoCMLCROZmgMSDEJFGY14VmEE4aG+rdw/8b4ytGsBzYZMxWjQOrPGTreuABfY1ZLASG4LA1sNcdxRhU3STUKpJiYCbXY3WRwKPVlisnJWJ2UEaYzIW8oAUoGrbgw/VvbxdpfJxgPUs8kJQN+wftkWaWTmwwM3lhxC+OOe8wfT01GbnooJGMuFa+fK8PpeBIiQriRIMUEQuGpiQijTW5rtz6UqjkZC1I8NRmxsafWXFKqFkHnOKzy9bhOK3WSUerYxoIUVOsstGvsirlMGKToyMQVRifJMBqkzCSFPKCeX99ldF5L2diseldbRczcp6bkHo0HKbKfTN2Z4l2iXEYFuywNu+9N4xO4GQ9S7xLlMjqvdYcop5Q/TKZ7anWVM4CLvYYESDFfvIlaf3ShltpELvLbiK6ghz7cYKijyskqJxIyIAVTkJT3vcMzKM5XJeTerKtc1JLGwhF/MecYpTSd5WqdJdlzCymQshv/ikOTrWoX3mWKHx443lH1pH/zCUYFj/DMIORAikkhSPr9b960ovnx88Ba/FKzmgH4a5vbe9ODDZ5UloSNB3y8bUISpGxyKMWz5qt5dOLSN1bxLjcLgvEy0MR2LOkaclg1rNqGetTrZ1zQiAjfQhqkbKKoXvfFzzvo4Jmd9FPGF5RTkFVibSUR5oRaW9SNigqPo4RKd1OLGl2ocfVWxpuXeHh8Q4A0cKJIOnEh6yzBrVrWflERMVS5XDUj3iW5yfsbDqRuMsfrywwOeCA1Yx08KkrhgAdSDx7Gc8ADqfFL5BHogdTDgPEc8EBq/BJ5BHog9TBgPAc8kBq/RB6B/wvOtskXSOHVTwAAAABJRU5ErkJggg==;fontFamily=Noto Sans JP;fontSource=https%3A%2F%2Ffonts.googleapis.com%2Fcss%3Ffamily%3DNoto%2BSans%2BJP;" parent="1" vertex="1">
                    <mxGeometry x="329.67986398502785" y="454.8322147651007" width="53.90738255033557" height="48.724832214765094" as="geometry"/>
                </mxCell>
                <mxCell id="45" value="Spring MVC" style="rounded=0;whiteSpace=wrap;html=1;fontFamily=Noto Sans JP;fontSize=18;fillColor=#85D2FF;fontColor=#000000;strokeColor=#85D2FF;strokeWidth=2;fontSource=https%3A%2F%2Ffonts.googleapis.com%2Fcss%3Ffamily%3DNoto%2BSans%2BJP;" parent="1" vertex="1">
                    <mxGeometry x="223.21" y="275.7" width="140" height="38.06" as="geometry"/>
                </mxCell>
                <mxCell id="50" value="" style="shape=image;imageAspect=0;aspect=fixed;verticalLabelPosition=bottom;verticalAlign=top;fontSize=18;image=data:image/png,iVBORw0KGgoAAAANSUhEUgAAASwAAAEsCAYAAAB5fY51AAAACXBIWXMAAA7EAAAOxAGVKw4bAAA59GlUWHRYTUw6Y29tLmFkb2JlLnhtcAAAAAAAPD94cGFja2V0IGJlZ2luPSLvu78iIGlkPSJXNU0wTXBDZWhpSHpyZVN6TlRjemtjOWQiPz4KPHg6eG1wbWV0YSB4bWxuczp4PSJhZG9iZTpuczptZXRhLyIgeDp4bXB0az0iQWRvYmUgWE1QIENvcmUgNS42LWMxMTEgNzkuMTU4MzI1LCAyMDE1LzA5LzEwLTAxOjEwOjIwICAgICAgICAiPgogICA8cmRmOlJERiB4bWxuczpyZGY9Imh0dHA6Ly93d3cudzMub3JnLzE5OTkvMDIvMjItcmRmLXN5bnRheC1ucyMiPgogICAgICA8cmRmOkRlc2NyaXB0aW9uIHJkZjphYm91dD0iIgogICAgICAgICAgICB4bWxuczp4bXA9Imh0dHA6Ly9ucy5hZG9iZS5jb20veGFwLzEuMC8iCiAgICAgICAgICAgIHhtbG5zOmRjPSJodHRwOi8vcHVybC5vcmcvZGMvZWxlbWVudHMvMS4xLyIKICAgICAgICAgICAgeG1sbnM6cGhvdG9zaG9wPSJodHRwOi8vbnMuYWRvYmUuY29tL3Bob3Rvc2hvcC8xLjAvIgogICAgICAgICAgICB4bWxuczp4bXBNTT0iaHR0cDovL25zLmFkb2JlLmNvbS94YXAvMS4wL21tLyIKICAgICAgICAgICAgeG1sbnM6c3RFdnQ9Imh0dHA6Ly9ucy5hZG9iZS5jb20veGFwLzEuMC9zVHlwZS9SZXNvdXJjZUV2ZW50IyIKICAgICAgICAgICAgeG1sbnM6dGlmZj0iaHR0cDovL25zLmFkb2JlLmNvbS90aWZmLzEuMC8iCiAgICAgICAgICAgIHhtbG5zOmV4aWY9Imh0dHA6Ly9ucy5hZG9iZS5jb20vZXhpZi8xLjAvIj4KICAgICAgICAgPHhtcDpDcmVhdG9yVG9vbD5BZG9iZSBQaG90b3Nob3AgQ0MgMjAxNSAoTWFjaW50b3NoKTwveG1wOkNyZWF0b3JUb29sPgogICAgICAgICA8eG1wOkNyZWF0ZURhdGU+MjAxOC0xMC0xM1QyMjoxNTozMyswMjowMDwveG1wOkNyZWF0ZURhdGU+CiAgICAgICAgIDx4bXA6TW9kaWZ5RGF0ZT4yMDE4LTEwLTEzVDIyOjM1OjMzKzAyOjAwPC94bXA6TW9kaWZ5RGF0ZT4KICAgICAgICAgPHhtcDpNZXRhZGF0YURhdGU+MjAxOC0xMC0xM1QyMjozNTozMyswMjowMDwveG1wOk1ldGFkYXRhRGF0ZT4KICAgICAgICAgPGRjOmZvcm1hdD5pbWFnZS9wbmc8L2RjOmZvcm1hdD4KICAgICAgICAgPHBob3Rvc2hvcDpDb2xvck1vZGU+MzwvcGhvdG9zaG9wOkNvbG9yTW9kZT4KICAgICAgICAgPHhtcE1NOkluc3RhbmNlSUQ+eG1wLmlpZDo3ZDM0NTNlNC05MTNjLTRkYTMtYmY0MC0xNzJkMWIwZWZmNGE8L3htcE1NOkluc3RhbmNlSUQ+CiAgICAgICAgIDx4bXBNTTpEb2N1bWVudElEPmFkb2JlOmRvY2lkOnBob3Rvc2hvcDplZWYzYmZjNC0wZmI1LTExN2MtYTcyMi1mMWExMmU2MmFjOTc8L3htcE1NOkRvY3VtZW50SUQ+CiAgICAgICAgIDx4bXBNTTpPcmlnaW5hbERvY3VtZW50SUQ+eG1wLmRpZDpjNTZkZGQwYy1jZWI5LTQwNmUtYWJkNi1mOTQyZjAzMWU4NDc8L3htcE1NOk9yaWdpbmFsRG9jdW1lbnRJRD4KICAgICAgICAgPHhtcE1NOkhpc3Rvcnk+CiAgICAgICAgICAgIDxyZGY6U2VxPgogICAgICAgICAgICAgICA8cmRmOmxpIHJkZjpwYXJzZVR5cGU9IlJlc291cmNlIj4KICAgICAgICAgICAgICAgICAgPHN0RXZ0OmFjdGlvbj5jcmVhdGVkPC9zdEV2dDphY3Rpb24+CiAgICAgICAgICAgICAgICAgIDxzdEV2dDppbnN0YW5jZUlEPnhtcC5paWQ6YzU2ZGRkMGMtY2ViOS00MDZlLWFiZDYtZjk0MmYwMzFlODQ3PC9zdEV2dDppbnN0YW5jZUlEPgogICAgICAgICAgICAgICAgICA8c3RFdnQ6d2hlbj4yMDE4LTEwLTEzVDIyOjE1OjMzKzAyOjAwPC9zdEV2dDp3aGVuPgogICAgICAgICAgICAgICAgICA8c3RFdnQ6c29mdHdhcmVBZ2VudD5BZG9iZSBQaG90b3Nob3AgQ0MgMjAxNSAoTWFjaW50b3NoKTwvc3RFdnQ6c29mdHdhcmVBZ2VudD4KICAgICAgICAgICAgICAgPC9yZGY6bGk+CiAgICAgICAgICAgICAgIDxyZGY6bGkgcmRmOnBhcnNlVHlwZT0iUmVzb3VyY2UiPgogICAgICAgICAgICAgICAgICA8c3RFdnQ6YWN0aW9uPnNhdmVkPC9zdEV2dDphY3Rpb24+CiAgICAgICAgICAgICAgICAgIDxzdEV2dDppbnN0YW5jZUlEPnhtcC5paWQ6N2QzNDUzZTQtOTEzYy00ZGEzLWJmNDAtMTcyZDFiMGVmZjRhPC9zdEV2dDppbnN0YW5jZUlEPgogICAgICAgICAgICAgICAgICA8c3RFdnQ6d2hlbj4yMDE4LTEwLTEzVDIyOjM1OjMzKzAyOjAwPC9zdEV2dDp3aGVuPgogICAgICAgICAgICAgICAgICA8c3RFdnQ6c29mdHdhcmVBZ2VudD5BZG9iZSBQaG90b3Nob3AgQ0MgMjAxNSAoTWFjaW50b3NoKTwvc3RFdnQ6c29mdHdhcmVBZ2VudD4KICAgICAgICAgICAgICAgICAgPHN0RXZ0OmNoYW5nZWQ+Lzwvc3RFdnQ6Y2hhbmdlZD4KICAgICAgICAgICAgICAgPC9yZGY6bGk+CiAgICAgICAgICAgIDwvcmRmOlNlcT4KICAgICAgICAgPC94bXBNTTpIaXN0b3J5PgogICAgICAgICA8dGlmZjpPcmllbnRhdGlvbj4xPC90aWZmOk9yaWVudGF0aW9uPgogICAgICAgICA8dGlmZjpYUmVzb2x1dGlvbj45NjAwMDAvMTAwMDA8L3RpZmY6WFJlc29sdXRpb24+CiAgICAgICAgIDx0aWZmOllSZXNvbHV0aW9uPjk2MDAwMC8xMDAwMDwvdGlmZjpZUmVzb2x1dGlvbj4KICAgICAgICAgPHRpZmY6UmVzb2x1dGlvblVuaXQ+MjwvdGlmZjpSZXNvbHV0aW9uVW5pdD4KICAgICAgICAgPGV4aWY6Q29sb3JTcGFjZT42NTUzNTwvZXhpZjpDb2xvclNwYWNlPgogICAgICAgICA8ZXhpZjpQaXhlbFhEaW1lbnNpb24+MzAwPC9leGlmOlBpeGVsWERpbWVuc2lvbj4KICAgICAgICAgPGV4aWY6UGl4ZWxZRGltZW5zaW9uPjMwMDwvZXhpZjpQaXhlbFlEaW1lbnNpb24+CiAgICAgIDwvcmRmOkRlc2NyaXB0aW9uPgogICA8L3JkZjpSREY+CjwveDp4bXBtZXRhPgogICAgICAgICAgICAgICAgICAgICAgICAgICAgICAgICAgICAgICAgICAgICAgICAgICAgICAgICAgICAgICAgICAgICAgICAgICAgICAgICAgICAgICAgICAgICAgICAgICAgCiAgICAgICAgICAgICAgICAgICAgICAgICAgICAgICAgICAgICAgICAgICAgICAgICAgICAgICAgICAgICAgICAgICAgICAgICAgICAgICAgICAgICAgICAgICAgICAgICAgICAKICAgICAgICAgICAgICAgICAgICAgICAgICAgICAgICAgICAgICAgICAgICAgICAgICAgICAgICAgICAgICAgICAgICAgICAgICAgICAgICAgICAgICAgICAgICAgICAgICAgIAogICAgICAgICAgICAgICAgICAgICAgICAgICAgICAgICAgICAgICAgICAgICAgICAgICAgICAgICAgICAgICAgICAgICAgICAgICAgICAgICAgICAgICAgICAgICAgICAgICAgCiAgICAgICAgICAgICAgICAgICAgICAgICAgICAgICAgICAgICAgICAgICAgICAgICAgICAgICAgICAgICAgICAgICAgICAgICAgICAgICAgICAgICAgICAgICAgICAgICAgICAKICAgICAgICAgICAgICAgICAgICAgICAgICAgICAgICAgICAgICAgICAgICAgICAgICAgICAgICAgICAgICAgICAgICAgICAgICAgICAgICAgICAgICAgICAgICAgICAgICAgIAogICAgICAgICAgICAgICAgICAgICAgICAgICAgICAgICAgICAgICAgICAgICAgICAgICAgICAgICAgICAgICAgICAgICAgICAgICAgICAgICAgICAgICAgICAgICAgICAgICAgCiAgICAgICAgICAgICAgICAgICAgICAgICAgICAgICAgICAgICAgICAgICAgICAgICAgICAgICAgICAgICAgICAgICAgICAgICAgICAgICAgICAgICAgICAgICAgICAgICAgICAKICAgICAgICAgICAgICAgICAgICAgICAgICAgICAgICAgICAgICAgICAgICAgICAgICAgICAgICAgICAgICAgICAgICAgICAgICAgICAgICAgICAgICAgICAgICAgICAgICAgIAogICAgICAgICAgICAgICAgICAgICAgICAgICAgICAgICAgICAgICAgICAgICAgICAgICAgICAgICAgICAgICAgICAgICAgICAgICAgICAgICAgICAgICAgICAgICAgICAgICAgCiAgICAgICAgICAgICAgICAgICAgICAgICAgICAgICAgICAgICAgICAgICAgICAgICAgICAgICAgICAgICAgICAgICAgICAgICAgICAgICAgICAgICAgICAgICAgICAgICAgICAKICAgICAgICAgICAgICAgICAgICAgICAgICAgICAgICAgICAgICAgICAgICAgICAgICAgICAgICAgICAgICAgICAgICAgICAgICAgICAgICAgICAgICAgICAgICAgICAgICAgIAogICAgICAgICAgICAgICAgICAgICAgICAgICAgICAgICAgICAgICAgICAgICAgICAgICAgICAgICAgICAgICAgICAgICAgICAgICAgICAgICAgICAgICAgICAgICAgICAgICAgCiAgICAgICAgICAgICAgICAgICAgICAgICAgICAgICAgICAgICAgICAgICAgICAgICAgICAgICAgICAgICAgICAgICAgICAgICAgICAgICAgICAgICAgICAgICAgICAgICAgICAKICAgICAgICAgICAgICAgICAgICAgICAgICAgICAgICAgICAgICAgICAgICAgICAgICAgICAgICAgICAgICAgICAgICAgICAgICAgICAgICAgICAgICAgICAgICAgICAgICAgIAogICAgICAgICAgICAgICAgICAgICAgICAgICAgICAgICAgICAgICAgICAgICAgICAgICAgICAgICAgICAgICAgICAgICAgICAgICAgICAgICAgICAgICAgICAgICAgICAgICAgCiAgICAgICAgICAgICAgICAgICAgICAgICAgICAgICAgICAgICAgICAgICAgICAgICAgICAgICAgICAgICAgICAgICAgICAgICAgICAgICAgICAgICAgICAgICAgICAgICAgICAKICAgICAgICAgICAgICAgICAgICAgICAgICAgICAgICAgICAgICAgICAgICAgICAgICAgICAgICAgICAgICAgICAgICAgICAgICAgICAgICAgICAgICAgICAgICAgICAgICAgIAogICAgICAgICAgICAgICAgICAgICAgICAgICAgICAgICAgICAgICAgICAgICAgICAgICAgICAgICAgICAgICAgICAgICAgICAgICAgICAgICAgICAgICAgICAgICAgICAgICAgCiAgICAgICAgICAgICAgICAgICAgICAgICAgICAgICAgICAgICAgICAgICAgICAgICAgICAgICAgICAgICAgICAgICAgICAgICAgICAgICAgICAgICAgICAgICAgICAgICAgICAKICAgICAgICAgICAgICAgICAgICAgICAgICAgICAgICAgICAgICAgICAgICAgICAgICAgICAgICAgICAgICAgICAgICAgICAgICAgICAgICAgICAgICAgICAgICAgICAgICAgIAogICAgICAgICAgICAgICAgICAgICAgICAgICAgICAgICAgICAgICAgICAgICAgICAgICAgICAgICAgICAgICAgICAgICAgICAgICAgICAgICAgICAgICAgICAgICAgICAgICAgCiAgICAgICAgICAgICAgICAgICAgICAgICAgICAgICAgICAgICAgICAgICAgICAgICAgICAgICAgICAgICAgICAgICAgICAgICAgICAgICAgICAgICAgICAgICAgICAgICAgICAKICAgICAgICAgICAgICAgICAgICAgICAgICAgICAgICAgICAgICAgICAgICAgICAgICAgICAgICAgICAgICAgICAgICAgICAgICAgICAgICAgICAgICAgICAgICAgICAgICAgIAogICAgICAgICAgICAgICAgICAgICAgICAgICAgICAgICAgICAgICAgICAgICAgICAgICAgICAgICAgICAgICAgICAgICAgICAgICAgICAgICAgICAgICAgICAgICAgICAgICAgCiAgICAgICAgICAgICAgICAgICAgICAgICAgICAgICAgICAgICAgICAgICAgICAgICAgICAgICAgICAgICAgICAgICAgICAgICAgICAgICAgICAgICAgICAgICAgICAgICAgICAKICAgICAgICAgICAgICAgICAgICAgICAgICAgICAgICAgICAgICAgICAgICAgICAgICAgICAgICAgICAgICAgICAgICAgICAgICAgICAgICAgICAgICAgICAgICAgICAgICAgIAogICAgICAgICAgICAgICAgICAgICAgICAgICAgICAgICAgICAgICAgICAgICAgICAgICAgICAgICAgICAgICAgICAgICAgICAgICAgICAgICAgICAgICAgICAgICAgICAgICAgCiAgICAgICAgICAgICAgICAgICAgICAgICAgICAgICAgICAgICAgICAgICAgICAgICAgICAgICAgICAgICAgICAgICAgICAgICAgICAgICAgICAgICAgICAgICAgICAgICAgICAKICAgICAgICAgICAgICAgICAgICAgICAgICAgICAgICAgICAgICAgICAgICAgICAgICAgICAgICAgICAgICAgICAgICAgICAgICAgICAgICAgICAgICAgICAgICAgICAgICAgIAogICAgICAgICAgICAgICAgICAgICAgICAgICAgICAgICAgICAgICAgICAgICAgICAgICAgICAgICAgICAgICAgICAgICAgICAgICAgICAgICAgICAgICAgICAgICAgICAgICAgCiAgICAgICAgICAgICAgICAgICAgICAgICAgICAgICAgICAgICAgICAgICAgICAgICAgICAgICAgICAgICAgICAgICAgICAgICAgICAgICAgICAgICAgICAgICAgICAgICAgICAKICAgICAgICAgICAgICAgICAgICAgICAgICAgICAgICAgICAgICAgICAgICAgICAgICAgICAgICAgICAgICAgICAgICAgICAgICAgICAgICAgICAgICAgICAgICAgICAgICAgIAogICAgICAgICAgICAgICAgICAgICAgICAgICAgICAgICAgICAgICAgICAgICAgICAgICAgICAgICAgICAgICAgICAgICAgICAgICAgICAgICAgICAgICAgICAgICAgICAgICAgCiAgICAgICAgICAgICAgICAgICAgICAgICAgICAgICAgICAgICAgICAgICAgICAgICAgICAgICAgICAgICAgICAgICAgICAgICAgICAgICAgICAgICAgICAgICAgICAgICAgICAKICAgICAgICAgICAgICAgICAgICAgICAgICAgICAgICAgICAgICAgICAgICAgICAgICAgICAgICAgICAgICAgICAgICAgICAgICAgICAgICAgICAgICAgICAgICAgICAgICAgIAogICAgICAgICAgICAgICAgICAgICAgICAgICAgICAgICAgICAgICAgICAgICAgICAgICAgICAgICAgICAgICAgICAgICAgICAgICAgICAgICAgICAgICAgICAgICAgICAgICAgCiAgICAgICAgICAgICAgICAgICAgICAgICAgICAgICAgICAgICAgICAgICAgICAgICAgICAgICAgICAgICAgICAgICAgICAgICAgICAgICAgICAgICAgICAgICAgICAgICAgICAKICAgICAgICAgICAgICAgICAgICAgICAgICAgICAgICAgICAgICAgICAgICAgICAgICAgICAgICAgICAgICAgICAgICAgICAgICAgICAgICAgICAgICAgICAgICAgICAgICAgIAogICAgICAgICAgICAgICAgICAgICAgICAgICAgICAgICAgICAgICAgICAgICAgICAgICAgICAgICAgICAgICAgICAgICAgICAgICAgICAgICAgICAgICAgICAgICAgICAgICAgCiAgICAgICAgICAgICAgICAgICAgICAgICAgICAgICAgICAgICAgICAgICAgICAgICAgICAgICAgICAgICAgICAgICAgICAgICAgICAgICAgICAgICAgICAgICAgICAgICAgICAKICAgICAgICAgICAgICAgICAgICAgICAgICAgICAgICAgICAgICAgICAgICAgICAgICAgICAgICAgICAgICAgICAgICAgICAgICAgICAgICAgICAgICAgICAgICAgICAgICAgIAogICAgICAgICAgICAgICAgICAgICAgICAgICAgICAgICAgICAgICAgICAgICAgICAgICAgICAgICAgICAgICAgICAgICAgICAgICAgICAgICAgICAgICAgICAgICAgICAgICAgCiAgICAgICAgICAgICAgICAgICAgICAgICAgICAgICAgICAgICAgICAgICAgICAgICAgICAgICAgICAgICAgICAgICAgICAgICAgICAgICAgICAgICAgICAgICAgICAgICAgICAKICAgICAgICAgICAgICAgICAgICAgICAgICAgICAgICAgICAgICAgICAgICAgICAgICAgICAgICAgICAgICAgICAgICAgICAgICAgICAgICAgICAgICAgICAgICAgICAgICAgIAogICAgICAgICAgICAgICAgICAgICAgICAgICAgICAgICAgICAgICAgICAgICAgICAgICAgICAgICAgICAgICAgICAgICAgICAgICAgICAgICAgICAgICAgICAgICAgICAgICAgCiAgICAgICAgICAgICAgICAgICAgICAgICAgICAgICAgICAgICAgICAgICAgICAgICAgICAgICAgICAgICAgICAgICAgICAgICAgICAgICAgICAgICAgICAgICAgICAgICAgICAKICAgICAgICAgICAgICAgICAgICAgICAgICAgICAgICAgICAgICAgICAgICAgICAgICAgICAgICAgICAgICAgICAgICAgICAgICAgICAgICAgICAgICAgICAgICAgICAgICAgIAogICAgICAgICAgICAgICAgICAgICAgICAgICAgICAgICAgICAgICAgICAgICAgICAgICAgICAgICAgICAgICAgICAgICAgICAgICAgICAgICAgICAgICAgICAgICAgICAgICAgCiAgICAgICAgICAgICAgICAgICAgICAgICAgICAgICAgICAgICAgICAgICAgICAgICAgICAgICAgICAgICAgICAgICAgICAgICAgICAgICAgICAgICAgICAgICAgICAgICAgICAKICAgICAgICAgICAgICAgICAgICAgICAgICAgICAgICAgICAgICAgICAgICAgICAgICAgICAgICAgICAgICAgICAgICAgICAgICAgICAgICAgICAgICAgICAgICAgICAgICAgIAogICAgICAgICAgICAgICAgICAgICAgICAgICAgICAgICAgICAgICAgICAgICAgICAgICAgICAgICAgICAgICAgICAgICAgICAgICAgICAgICAgICAgICAgICAgICAgICAgICAgCiAgICAgICAgICAgICAgICAgICAgICAgICAgICAgICAgICAgICAgICAgICAgICAgICAgICAgICAgICAgICAgICAgICAgICAgICAgICAgICAgICAgICAgICAgICAgICAgICAgICAKICAgICAgICAgICAgICAgICAgICAgICAgICAgICAgICAgICAgICAgICAgICAgICAgICAgICAgICAgICAgICAgICAgICAgICAgICAgICAgICAgICAgICAgICAgICAgICAgICAgIAogICAgICAgICAgICAgICAgICAgICAgICAgICAgICAgICAgICAgICAgICAgICAgICAgICAgICAgICAgICAgICAgICAgICAgICAgICAgICAgICAgICAgICAgICAgICAgICAgICAgCiAgICAgICAgICAgICAgICAgICAgICAgICAgICAgICAgICAgICAgICAgICAgICAgICAgICAgICAgICAgICAgICAgICAgICAgICAgICAgICAgICAgICAgICAgICAgICAgICAgICAKICAgICAgICAgICAgICAgICAgICAgICAgICAgICAgICAgICAgICAgICAgICAgICAgICAgICAgICAgICAgICAgICAgICAgICAgICAgICAgICAgICAgICAgICAgICAgICAgICAgIAogICAgICAgICAgICAgICAgICAgICAgICAgICAgICAgICAgICAgICAgICAgICAgICAgICAgICAgICAgICAgICAgICAgICAgICAgICAgICAgICAgICAgICAgICAgICAgICAgICAgCiAgICAgICAgICAgICAgICAgICAgICAgICAgICAgICAgICAgICAgICAgICAgICAgICAgICAgICAgICAgICAgICAgICAgICAgICAgICAgICAgICAgICAgICAgICAgICAgICAgICAKICAgICAgICAgICAgICAgICAgICAgICAgICAgICAgICAgICAgICAgICAgICAgICAgICAgICAgICAgICAgICAgICAgICAgICAgICAgICAgICAgICAgICAgICAgICAgICAgICAgIAogICAgICAgICAgICAgICAgICAgICAgICAgICAgICAgICAgICAgICAgICAgICAgICAgICAgICAgICAgICAgICAgICAgICAgICAgICAgICAgICAgICAgICAgICAgICAgICAgICAgCiAgICAgICAgICAgICAgICAgICAgICAgICAgICAgICAgICAgICAgICAgICAgICAgICAgICAgICAgICAgICAgICAgICAgICAgICAgICAgICAgICAgICAgICAgICAgICAgICAgICAKICAgICAgICAgICAgICAgICAgICAgICAgICAgICAgICAgICAgICAgICAgICAgICAgICAgICAgICAgICAgICAgICAgICAgICAgICAgICAgICAgICAgICAgICAgICAgICAgICAgIAogICAgICAgICAgICAgICAgICAgICAgICAgICAgICAgICAgICAgICAgICAgICAgICAgICAgICAgICAgICAgICAgICAgICAgICAgICAgICAgICAgICAgICAgICAgICAgICAgICAgCiAgICAgICAgICAgICAgICAgICAgICAgICAgICAgICAgICAgICAgICAgICAgICAgICAgICAgICAgICAgICAgICAgICAgICAgICAgICAgICAgICAgICAgICAgICAgICAgICAgICAKICAgICAgICAgICAgICAgICAgICAgICAgICAgICAgICAgICAgICAgICAgICAgICAgICAgICAgICAgICAgICAgICAgICAgICAgICAgICAgICAgICAgICAgICAgICAgICAgICAgIAogICAgICAgICAgICAgICAgICAgICAgICAgICAgICAgICAgICAgICAgICAgICAgICAgICAgICAgICAgICAgICAgICAgICAgICAgICAgICAgICAgICAgICAgICAgICAgICAgICAgCiAgICAgICAgICAgICAgICAgICAgICAgICAgICAgICAgICAgICAgICAgICAgICAgICAgICAgICAgICAgICAgICAgICAgICAgICAgICAgICAgICAgICAgICAgICAgICAgICAgICAKICAgICAgICAgICAgICAgICAgICAgICAgICAgICAgICAgICAgICAgICAgICAgICAgICAgICAgICAgICAgICAgICAgICAgICAgICAgICAgICAgICAgICAgICAgICAgICAgICAgIAogICAgICAgICAgICAgICAgICAgICAgICAgICAgICAgICAgICAgICAgICAgICAgICAgICAgICAgICAgICAgICAgICAgICAgICAgICAgICAgICAgICAgICAgICAgICAgICAgICAgCiAgICAgICAgICAgICAgICAgICAgICAgICAgICAgICAgICAgICAgICAgICAgICAgICAgICAgICAgICAgICAgICAgICAgICAgICAgICAgICAgICAgICAgICAgICAgICAgICAgICAKICAgICAgICAgICAgICAgICAgICAgICAgICAgICAgICAgICAgICAgICAgICAgICAgICAgICAgICAgICAgICAgICAgICAgICAgICAgICAgICAgICAgICAgICAgICAgICAgICAgIAogICAgICAgICAgICAgICAgICAgICAgICAgICAgICAgICAgICAgICAgICAgICAgICAgICAgICAgICAgICAgICAgICAgICAgICAgICAgICAgICAgICAgICAgICAgICAgICAgICAgCiAgICAgICAgICAgICAgICAgICAgICAgICAgICAgICAgICAgICAgICAgICAgICAgICAgICAgICAgICAgICAgICAgICAgICAgICAgICAgICAgICAgICAgICAgICAgICAgICAgICAKICAgICAgICAgICAgICAgICAgICAgICAgICAgICAgICAgICAgICAgICAgICAgICAgICAgICAgICAgICAgICAgICAgICAgICAgICAgICAgICAgICAgICAgICAgICAgICAgICAgIAogICAgICAgICAgICAgICAgICAgICAgICAgICAgICAgICAgICAgICAgICAgICAgICAgICAgICAgICAgICAgICAgICAgICAgICAgICAgICAgICAgICAgICAgICAgICAgICAgICAgCiAgICAgICAgICAgICAgICAgICAgICAgICAgICAgICAgICAgICAgICAgICAgICAgICAgICAgICAgICAgICAgICAgICAgICAgICAgICAgICAgICAgICAgICAgICAgICAgICAgICAKICAgICAgICAgICAgICAgICAgICAgICAgICAgICAgICAgICAgICAgICAgICAgICAgICAgICAgICAgICAgICAgICAgICAgICAgICAgICAgICAgICAgICAgICAgICAgICAgICAgIAogICAgICAgICAgICAgICAgICAgICAgICAgICAgICAgICAgICAgICAgICAgICAgICAgICAgICAgICAgICAgICAgICAgICAgICAgICAgICAgICAgICAgICAgICAgICAgICAgICAgCiAgICAgICAgICAgICAgICAgICAgICAgICAgICAgICAgICAgICAgICAgICAgICAgICAgICAgICAgICAgICAgICAgICAgICAgICAgICAgICAgICAgICAgICAgICAgICAgICAgICAKICAgICAgICAgICAgICAgICAgICAgICAgICAgICAgICAgICAgICAgICAgICAgICAgICAgICAgICAgICAgICAgICAgICAgICAgICAgICAgICAgICAgICAgICAgICAgICAgICAgIAogICAgICAgICAgICAgICAgICAgICAgICAgICAgICAgICAgICAgICAgICAgICAgICAgICAgICAgICAgICAgICAgICAgICAgICAgICAgICAgICAgICAgICAgICAgICAgICAgICAgCiAgICAgICAgICAgICAgICAgICAgICAgICAgICAgICAgICAgICAgICAgICAgICAgICAgICAgICAgICAgICAgICAgICAgICAgICAgICAgICAgICAgICAgICAgICAgICAgICAgICAKICAgICAgICAgICAgICAgICAgICAgICAgICAgICAgICAgICAgICAgICAgICAgICAgICAgICAgICAgICAgICAgICAgICAgICAgICAgICAgICAgICAgICAgICAgICAgICAgICAgIAogICAgICAgICAgICAgICAgICAgICAgICAgICAgICAgICAgICAgICAgICAgICAgICAgICAgICAgICAgICAgICAgICAgICAgICAgICAgICAgICAgICAgICAgICAgICAgICAgICAgCiAgICAgICAgICAgICAgICAgICAgICAgICAgICAgICAgICAgICAgICAgICAgICAgICAgICAgICAgICAgICAgICAgICAgICAgICAgICAgICAgICAgICAgICAgICAgICAgICAgICAKICAgICAgICAgICAgICAgICAgICAgICAgICAgICAgICAgICAgICAgICAgICAgICAgICAgICAgICAgICAgICAgICAgICAgICAgICAgICAgICAgICAgICAgICAgICAgICAgICAgIAogICAgICAgICAgICAgICAgICAgICAgICAgICAgICAgICAgICAgICAgICAgICAgICAgICAgICAgICAgICAgICAgICAgICAgICAgICAgICAgICAgICAgICAgICAgICAgICAgICAgCiAgICAgICAgICAgICAgICAgICAgICAgICAgICAgICAgICAgICAgICAgICAgICAgICAgICAgICAgICAgICAgICAgICAgICAgICAgICAgICAgICAgICAgICAgICAgICAgICAgICAKICAgICAgICAgICAgICAgICAgICAgICAgICAgICAgICAgICAgICAgICAgICAgICAgICAgICAgICAgICAgICAgICAgICAgICAgICAgICAgICAgICAgICAgICAgICAgICAgICAgIAogICAgICAgICAgICAgICAgICAgICAgICAgICAgICAgICAgICAgICAgICAgICAgICAgICAgICAgICAgICAgICAgICAgICAgICAgICAgICAgICAgICAgICAgICAgICAgICAgICAgCiAgICAgICAgICAgICAgICAgICAgICAgICAgICAgICAgICAgICAgICAgICAgICAgICAgICAgICAgICAgICAgICAgICAgICAgICAgICAgICAgICAgICAgICAgICAgICAgICAgICAKICAgICAgICAgICAgICAgICAgICAgICAgICAgICAgICAgICAgICAgICAgICAgICAgICAgICAgICAgICAgICAgICAgICAgICAgICAgICAgICAgICAgICAgICAgICAgICAgICAgIAogICAgICAgICAgICAgICAgICAgICAgICAgICAgICAgICAgICAgICAgICAgICAgICAgICAgICAgICAgICAgICAgICAgICAgICAgICAgICAgICAgICAgICAgICAgICAgICAgICAgCiAgICAgICAgICAgICAgICAgICAgICAgICAgICAgICAgICAgICAgICAgICAgICAgICAgICAgICAgICAgICAgICAgICAgICAgICAgICAgICAgICAgICAgICAgICAgICAgICAgICAKICAgICAgICAgICAgICAgICAgICAgICAgICAgICAgICAgICAgICAgICAgICAgICAgICAgICAgICAgICAgICAgICAgICAgICAgICAgICAgICAgICAgICAgICAgICAgICAgICAgIAogICAgICAgICAgICAgICAgICAgICAgICAgICAgICAgICAgICAgICAgICAgICAgICAgICAgICAgICAgICAgICAgICAgICAgICAgICAgICAgICAgICAgICAgICAgICAgICAgICAgCiAgICAgICAgICAgICAgICAgICAgICAgICAgICAgICAgICAgICAgICAgICAgICAgICAgICAgICAgICAgICAgICAgICAgICAgICAgICAgICAgICAgICAgICAgICAgICAgICAgICAKICAgICAgICAgICAgICAgICAgICAgICAgICAgICAgICAgICAgICAgICAgICAgICAgICAgICAgICAgICAgICAgICAgICAgICAgICAgICAgICAgICAgICAgICAgICAgICAgICAgIAogICAgICAgICAgICAgICAgICAgICAgICAgICAgICAgICAgICAgICAgICAgICAgICAgICAgICAgICAgICAgICAgICAgICAgICAgICAgICAgICAgICAgICAgICAgICAgICAgICAgCiAgICAgICAgICAgICAgICAgICAgICAgICAgICAgICAgICAgICAgICAgICAgICAgICAgICAgICAgICAgICAgICAgICAgICAgICAgICAgICAgICAgICAgICAgICAgICAgICAgICAKICAgICAgICAgICAgICAgICAgICAgICAgICAgICAgICAgICAgICAgICAgICAgICAgICAgICAgICAgICAgICAgICAgICAgICAgICAgICAgICAgICAgICAgICAgICAgICAgICAgIAogICAgICAgICAgICAgICAgICAgICAgICAgICAgICAgICAgICAgICAgICAgICAgICAgICAgICAgICAgICAgICAgICAgICAgICAgICAgICAgICAgICAgICAgICAgICAgICAgICAgCiAgICAgICAgICAgICAgICAgICAgICAgICAgICAgICAgICAgICAgICAgICAgICAgICAgICAgICAgICAgICAgICAgICAgICAgICAgICAgICAgICAgICAgICAgICAgICAgICAgICAKICAgICAgICAgICAgICAgICAgICAgICAgICAgICAgICAgICAgICAgICAgICAgICAgICAgICAgICAgICAgICAgICAgICAgICAgICAgICAgICAgICAgICAgICAgICAgICAgICAgIAogICAgICAgICAgICAgICAgICAgICAgICAgICAgICAgICAgICAgICAgICAgICAgICAgICAgICAgICAgICAgICAgICAgICAgICAgICAgICAgICAgICAgICAgICAgICAgICAgICAgCiAgICAgICAgICAgICAgICAgICAgICAgICAgICAgICAgICAgICAgICAgICAgICAgICAgICAgICAgICAgICAgICAgICAgICAgICAgICAgICAgICAgICAgICAgICAgICAgICAgICAKICAgICAgICAgICAgICAgICAgICAgICAgICAgICAgICAgICAgICAgICAgICAgICAgICAgICAgICAgICAgICAgICAgICAgICAgICAgICAgICAgICAgICAgICAgICAgICAgICAgIAogICAgICAgICAgICAgICAgICAgICAgICAgICAgICAgICAgICAgICAgICAgICAgICAgICAgICAgICAgICAgICAgICAgICAgICAgICAgICAgICAgICAgICAgICAgICAgICAgICAgCiAgICAgICAgICAgICAgICAgICAgICAgICAgICAgICAgICAgICAgICAgICAgICAgICAgICAgICAgICAgICAgICAgICAgICAgICAgICAgICAgICAgICAgICAgICAgICAgICAgICAKICAgICAgICAgICAgICAgICAgICAgICAgICAgICAgICAgICAgICAgICAgICAgICAgICAgICAgICAgICAgICAgICAgICAgICAgICAgICAgICAgICAgICAgICAgICAgICAgICAgIAogICAgICAgICAgICAgICAgICAgICAgICAgICAgICAgICAgICAgICAgICAgICAgICAgICAgICAgICAgICAgICAgICAgICAgICAgICAgICAgICAgICAgICAgICAgICAgICAgICAgCiAgICAgICAgICAgICAgICAgICAgICAgICAgICAgICAgICAgICAgICAgICAgICAgICAgICAgICAgICAgICAgICAgICAgICAgICAgICAgICAgICAgICAgICAgICAgICAgICAgICAKICAgICAgICAgICAgICAgICAgICAgICAgICAgICAgICAgICAgICAgICAgICAgICAgICAgICAgICAgICAgICAgICAgICAgICAgICAgICAgICAgICAgICAgICAgICAgICAgICAgIAogICAgICAgICAgICAgICAgICAgICAgICAgICAgICAgICAgICAgICAgICAgICAgICAgICAgICAgICAgICAgICAgICAgICAgICAgICAgICAgICAgICAgICAgICAgICAgICAgICAgCiAgICAgICAgICAgICAgICAgICAgICAgICAgICAgICAgICAgICAgICAgICAgICAgICAgICAgICAgICAgICAgICAgICAgICAgICAgICAgICAgICAgICAgICAgICAgICAgICAgICAKICAgICAgICAgICAgICAgICAgICAgICAgICAgICAgICAgICAgICAgICAgICAgICAgICAgICAgICAgICAgICAgICAgICAgICAgICAgICAgICAgICAgICAgICAgICAgICAgICAgIAogICAgICAgICAgICAgICAgICAgICAgICAgICAgICAgICAgICAgICAgICAgICAgICAgICAgICAgICAgICAgICAgICAgICAgICAgICAgICAgICAgICAgICAgICAgICAgICAgICAgCiAgICAgICAgICAgICAgICAgICAgICAgICAgICAgICAgICAgICAgICAgICAgICAgICAgICAgICAgICAgICAgICAgICAgICAgICAgICAgICAgICAgICAgICAgICAgICAgICAgICAKICAgICAgICAgICAgICAgICAgICAgICAgICAgIAo8P3hwYWNrZXQgZW5kPSJ3Ij8+OIJoLwAAACBjSFJNAAB6JQAAgIMAAPn/AACA6QAAdTAAAOpgAAA6mAAAF2+SX8VGAABHR0lEQVR42ux9eXxcdbn3vOp7fe/Vq7z6XgHpnN85wyIiehFxQxF3FJGL21VRRL3igqBAm7PNnlIpOxQKyCrIVtaylTbnzJxl9i1t0jRLkzRt0qRJmn2bZLbf+8eZKelk0ibpTHJm8nw/n+8foLSz/M53nuf5Pc/3MRgAgFmwWAz/i32TOMm8w0iybuJ8ViAuYUTiF1UCuoEWiJsZF/kALaIXGREJtIAijEg00QLqYkQ0wIhonBGJOCMinGWaFogpWkBjjID6aRHtZ0RiDy0QAUYk3qZF4jnGhTYxLmRnROJaWkQ/5dzGrzMu9CmzYlpT5T3r/fCNAACrHHb3Re+2eygjp5Jf4dzEbxk3sYF1o+dZF+FnRKKDEdE460bY6iOxPURhZ4TCzogJO8IUtocobAtQ2OojsdlDYl4hMSeTmHMjzLo0zhIs7d+5EeYkhHmZxGaVxBYvia1+7c9xhCnsyP35EQrbgxS2eMnsf08MMSLay7qRzLnRk5yE7IzLeBUroy/wivEUjOG7BAAqS5yC1L/zovHTrIJ+xbmIOxg32s66USvjIqYsXhI7wppY2EMUtvopbPZoAsS6EWbyxGe5mBM5XiaxxUMeEbacaJo9JGZcaJwViSbOjV7n3OQGTkU/5XzUJ+zRU/4VvnUAoExg9q4xcSr1I86NbuPcpJtxo0O8/I4w2YJZUZLIFROkYggaJ2uRmj34juBmRbaLdaMdnExu4BXycruHMsKpAAB0AlY67XRWIn/Jyehh1o3qWRea0dI4E7YFKMwr5Jw0rVLJuhE2qyS2BSnsjJqwPUhhxkVMsW4ixsvkZk5FPzUrRhJODQCwXALlIU5iZfRdXibv5NxEjHWjmVwdyOIlMSetDnFaKDmJxFYfqdXHtCgszkkoxKnoVl5B32ai5AfgVAEAxUzzfIjgPeg3nES+zLpRny2gRVBWHwUCtWgBQ9jqz0agfgqzEjrESehFXkFXm12IgNMGACwtkqI4hbiWl5HAudFkLkLgFRKEp4jkFe0m1BGmMOtGk5yManjF+Geza40JTiEAcAzYQ8TJvEL9Dyej7ZyE4rkiOSeBSC1X+mjLFvE5CcU5GdVwCvl7u9d4KpxOAMBgMNheOPt/8wpxKa+Qz3ASGs71IkGqt/KpoyZeFOYkNMIpaAsnof+yude8F04tYPWlfCp5Jq8gBy+jZltQS0l4GSIpXaaN2bYQe5DCnIzaeJn8m8VjPAdOMaDyhUq74XuFk9G0M2qa1dUNLAeaPSR2Rk2YlVCKV8k3ORn94JqHDO+Bkw2onNqUhD7Iq+hPnELW5rq2IeUr/54veyh7EaKSe3iFXLdOIk6G0w4oWzACZeQUYj2vkAedURO2+il42CuQFq8WdXEyGuAVdDcnER+D0w8oG1S5yLN4Gd3Hy2jUGTVhswppX8VT0FokssI1zSvoSauHOB+eBoBuQdegs3kF/Z1XUNwZNWlFdAEe5tUmXJyEsDOi9czxCnqBFdAXKrbc8dop//qDLYZ3wdNfToV0gTyTV9Dfc4V0TgKhAuHS6lw5dwleQS+wMnlBxWUTNcSD3HZIgcsCN4prPmpWybt4mZzUhAqBUAELC1cu4pLJf9KuymiJMCumNfYghWmR+C2ogY5xrXTS+3gZ8bxCDjhjJsxB6gdcoHA5IybMKWiak9EmXlzz0TKPrjbctvcMTNeg10EV9Jr+KehXvEq2VsdM2lwfCBVwKTWuqAnzCjnASYj51RPl1z1ftfWs9zMi0Ze9+R67UTrlw6AOOgIjrPkSLyM5Z+MCQgU8UeEyqyR2xkyYV8k9nGT8UXk9D8R1zqgJM6JWp2MF45WgEjoAJ1If4WX0oNmjTfXDwwYstnBZfTknDvT6Wum0T+j9mXgo8un3MAJqz01pOMIUpgXiFVCLlRYrhfgtr5I91TGTZr8LURWwVHRpDz6vojivIIee00RGIK9yRqijLHoYkRi5cftH/y+oxgqAdhnP4VW03RnRrqRpECrgMpAWNK/66pgJm1VUz7rIb+nt2fjBFsO7aIFotPqOzjYcYQrTLuNPQD2WGbybpM0KOekIQ/oHXLk00ebXthjxMnrwT28SJ+kmuhKJXzgjpjmv2RGmMCMQz4OCLNcXsR19yqwiBW7/gHpqg6jWivLtjGi8TA/RFSMQTfnRVS4tpAU0AMtvlwFmGd3Iq+QUFNWBekwTrT5t6Swvk5t/8+gH379y0RW6OnczWIj2EIUZgbwcFKVEWPsmIswq+VYuqoJaFbAMoq09nGj88nI/K9e/RfwLIxAdx/Jvc0QozIjEE6AspbgBdKGfWDyob/ZtBxCo92jLFqCwWSXTnESYl/Uiage6sTpmOmapxKySmK4hem7wf/T/gMIUCT+2nf2/eRndaw9S2AI3gMCy7JTXbhI5Fb190/ZT15T6mblx+0f/L+dGhxdik2TzU5gViG+A0hQBN20nPmaWURD6qoCVQEeEwmaV7KFriEtL+dxU7SDuKhRdFdoo7oyYMC2g+0BtTvRDryF+bPaQQ1phEA47sDJSRIuPxFY/hTk3YS3Fc5O1Tpo5ytI7W1Nj3YXdV2kBtdvdhneD6iz1Q3cRN9sC0AQKrPAUUSFf/uur6IPFrV0RbzoiR//IZ0sp9bRA3G4LUHOiLouXxHQN8flVLzwY40Xxr6+iD/IK2lpdCykgsPLpjGq3iOu2nfbJxT4rhVglEN+zhyjMuI4WyOqYCR8crVczODPEy6ZUfqTljJpwlUhsOJG/e9UJ1tptxo/zCtlwrL4RILDSUkR7kMJmDxpZtwNdcSKCYXOveS/jQm35TaIWL4k3ei/sxhjPYIzxg9GfNNrylqtYfRSuqiHqQLAW+GbXCcQlZpUctIcoSAGBq6+u5dHqWrSLWLtUwVi3g7i5UKHdGTXhg6O7PTiLxsOClB8UsG6EOYlMc6Lx4yBYxyEtkr83e8h0tvgHhxi4Outa8pGFr/ctViyyw/8JbvYm8mwP2L2h7+3Fs5BMT7fxsildKC1kBGIdCNYxyIqo2hGmoGsdCMwWwKtrTZiT0avXvHbKvy5ULBgBefNv01mXlm6OzwzEcB42h6+YM19oC1CYriEUEKz5xEpCj0B/FRA4l9Xa3gH/2h3Ufxw3Fdxu/Gt1zDQnzXRGKPxSIxvEBVDft21OWshJCDMuIs6Laz4KgjWLv3pizXs5Cb1aXWsq2MgGBEKKqAmOWSUb121bY5r3VrDmtDN4hZzUDPmOdmKwqx+fTGeS3YUEK5GOt/AKOef502YL0dUgWEdCV/IDvIyk/F8EIBBY4AYxRGGzSnbN1/ZAi8ij2R3PjdBaBhQZHwP3BC5ttfrIuR5ZIvESCBbGhj++fPJ/cAoKa8U9OJBA4CKGpw+v3YE+d/TNupGZ88OfFbkHIz9uxMdBtOfFOWkhr5CYFtGAfRv176tasP681XiqWUH1zgi0LQCBi/bX8mu9WlUi+WWMsYEVyAvMHjLJySivDkViq/f0ZCIdbzmeYMWT43ssnrlpoS1IYdaFvrtqBeum7aeu4RXUVCh0BQKBCzcFZN1ojBaNP6IFotYWKJwKNvRtl/DCkL7d97UD+X5ZzogJ0zXE5lUpWDdtN63hFdQCYgUEnrho8QqJzR4S8/LRbUC0oNWfHq39ZT1eBDydj8n5aWF2rrD1B1sM71pVgnXD28ZTeBk1g1gBgcXt1cqvW5lVEjt954yn0onOxQjWxMxAbaFhaLNC4irR+OlVI1jXbzv5/3Ey2g1iBQSWXsAcERPuG2/14cUjfrP62b58o79s1MWtCsG6bhv175yMIlljMDhUQGAJ+7Wqa01Y6tis4CViW9tGryNSoOtdRGrFC9b1bxH/wrqR7IyCWAGBpa5pOcIU/nvtTxoxxsmlCtbAZEcgf6enZv5HxKtqjKdWtGAxbrT1eMb3QCDwxCMri5fEN/vPG5yvm32hyODMkE06Z5yX5zaRVgnGKytWsBgBPbK+FjrYgcBSk5dJbPGSeGJmoBYXAc81/CWSv+PTEaYwXUM8XZGCVVWDnNUx09FOh0AgsPhFdrdWFN8/HFVwkbB/JKrktzeYVRLTAjpoc695b0UJVlUN8T+OMFXQ4B4IBBbZyaHWhP2dT8q4iEilE/vN8unJo57hrNf7uh3GCytGsG7abvymxUOmeYWEuhUQWOobwZgJv9psDuASYHP4iiZrnnWydnlmdFSEYN0knHomr5JD4BQKBJb+RtAZNeEndl1dl/NmLzYKDUPbAhRmBMJf9oJV5T3r/aybaAQPdiBwedoXNscu25vBmRFcIkwmhndZfUdv3MmZ+tHbTj2trAWLdqHXqqHXCghcFk+sO0Nf60xnUr24tIjfrH62N7/r3RGmMO1CPy9bwaJrUHU1tC8AgaUXqyCFbw99qWexM4JLxRt71/vym0gdEQrTIvpHWQrWTdtP+y97kMJHrcEGAoElEatbg188lEzPtONlwqHxpjljOhYPiekaouOaiOE9ZSVYrEBQvIJGLB64EQQCl0msOvAyIp1JdvPSGTOzAxLWpdnaHM+9QVewuy96N+tCYXBfAAJLX7O6LXRh93KLVQ4PRn+yp2B7Q82xl7zqrW51b3UtzAgCgaW+Dbw78s39y1WzKtze8NKc9gZ7kMKMQLxdFoJVla1bQSc7EFi6plBn1IQfqL28ZRluA49t6pcY3Jm/ZFVbdEwMMQL5AV0LVlWN8VROJgcsXqhbAYElG7eJmfBT9b/dVco+q8W0ZDnl8wfzdx3a/BSmReM3dS1YtEBsByM+ILB0bqHVtSa8tcUSKFUH+1Lw4h46lO/eoI3pELfoVrDoHcT1sPAUCCxNCsjJJHZGTdjX9YSMdYZ9wyHFGaXmRlgCEdClYFW9TZ7FKyieHxYCgcATL65bPCS2+incOujRnVhlV9m38vLROws5icSMiCb5t42n6E6wGBF5oYUBCCxNj9V6/7ljw/HuENYv0rf5vtpp8RwdsNhDFKZr0A90JVhV29FNkAoCgcWnM2rCm6LfaUukjr+ZeaWxve02b/6YjjNCYUZAm3QjWOz2007nFHIKUkEgsIj1Kkm7Cdy6lw/o5CbwuOgpMKZj9VGYFoiduhEsWkACpIJAYBHrVV6tXrW7f5uEywipdKKTl05Pcu48uxkRzTACZVxxwaqqIX7pjEAqCAQWLQWMUHhj8PO9I9OHwrgMcW/wu20Wb57djFbH+smKChbrIU5i3agvv8gGBAKX1rJQHTPh5xuvi6QzqR5cphD3bVKdkfw6lgkzInH/igpWVQ3xYHUMGkSBwBNNAW0BCltUU7rxcI2Myxx9E61z/LGydaxdKyZYrJs43+whYVYQCDyBqIp1a4X1+2u/1zaVHKnDFYBUOtHJuRdWx1rOQrvHHqJgVhAIXGJUZfVR2BagsKfzERljPIkrCHcHLplTx7KHKEyLxh8tu2DRIvopFNqBwBOLqu6OfnP/yHRPBFcghH13exyRAv1YIrpnWQXL5l7zXkYkOiw+KLQDgYsVK1uAwlYfiT1dj8gZnBnDFYqe8UbPnDqWn8K0gMLLKljrBMRUx8CUDwhcjFDx2RvAB2svb55IDNTiCkcyPd3GulF6do2bk0nMiGiCE6mPLItg3Sid8mHWjYZ5FaIrIHBBdGkbZOyej0/uGdghYYyTeHUgeav3K13mvJYnW4DCVTXou8siWHQNcSdEV0DgwqIqq5/C9iCFt+7lA8u5xUYv2NpsCxTyx6oSiPUlFyyzYlrDyuQUL0N0BQQeS6jMquZZtTl22V6duyuUFG2DPiX/cs4WpDAjIqHkgkXXGB+qjkJ0BQQer1P9lsAFh1uHPPIqSv8KIp4crbd4j/bH4lUS0wLRb5NOel/JBIsVCIqT0UzWjAsIBOa1KTijJmzzfmwq1PO0nMmkD2MAzuDMmEM+b2i2iwvr0iLQtTvQ50omWLSAHnZCdAUEzhEqR4TCZtmUFvff5VmpnYB6xuM7f73LFpg7V0iLxj+XRLDWuhDBySgO0RUQeLRQ8QqJ32xz+mZSk80gTYXh73pSzq9jOcIUpkX0z5IIFl2D7oWbQSAIlTYP58xGVG+2OX3TqYlGkKRjo3+i3efIuynU1v8Re4ouWH8RqY+wbjQGN4PA1Uxe0W79LMoZ0zUdt3sgolpMA+lMB+tGKXbOIDQxzQiUsbhLJQRkh+gKuFpp8WpCtd533mCw5ykZalRL06yNvi8fLNRAygrE94pXu9px8r8xAnHIDF3twFVE1q25CthDFL43ekn73iEVbv1OEM833BC2BwstWEWO4tWuXMbfOaPgyABcHTR7tGiKl6n0i803hofinYHV3kdVLOzsfU3K1xJ7kMK0iN4ojlphg4GuIeqtfgoOM7BiyckkdoS1aOqO0MWdsb6XpEQ63goSU1wMxbuC+RGW2UNiWiA6rol8+j0nbn3sNn49v3cCCKwIkZJIbA9S2BmhsNNz7ujrrTb/8HR3CGMcB2kpDVLpxH5GPLrwzroRZlwoxQrkmcUYcn4l38sGCCznSConUhblzPjze66LHhyr92Rwug/kZJkK7565hXd7iMKMm/jhCTeKshKaznowA4HlVzh3aSmHI0xp9Jw7+kLjjeHO0Z1KOpPsAv1YfjzXcH1kbuGdwrRA3HxirQwiYYVWBmDZCZRKYnuIws6oCZtVEt8Z+toBoeMuz8BUhx8iqZVHpPsFKb/j3R6kMCMQby1ZrOzui95N16A55vFAoJ4M8TiJxBavFkE5IxQ2qyS+xfeFQy8306HWIY+c7UCfAZnQDwqt/rJ4SEyLqN3uNrx7icslyG9CsR2op54os6qtbNfEyYStfgpb5bMn7wtftnfHvo3eA6NRJStQkyAL+sVMarKZk4+2msmWnRKsQFBLdGUgnsnfdAEElipSYt1atGRWSWz1ae0FzogJOyIUtmVbav7m+0Lvozuv3C3uv8fTPuyXJxKDtelMqhckoLxQyGpmtmXyEjyvTv0QIxIj+X8gELgg8ZklQLyiiZDFSx6xCc5FSM6ICTvCFLb6KZx1AJnc6L2w++/RnzS+0sQFgwf/KR8YiSpjM/3R7CgMRE4VggejP2nM7+3U6lpGegnFdnS1E6IrEJqc0GSXfNqDWuTjCFPYEZklOhHt39mC2toqXsmF+0ScFtHgRu+F3feGvtv2SO2Vu7fsuSG8ve12T7j7WXnvoCL3TrT4xhMDsUQ63pKNlqAHahXgrb0bvPl1rOw//3PxzaIC2pFvGA8s39oPJ+dSLRLbjkQ41JEIxz5LaBgRpWmBmGJENHCL58Keu4Lf2vdA9IdNj+/89a7nGq6PbG22BYR9d3u8nU/Iu3q3Ss0Dkrx/JKr0TrT4huJdwYmZgdrp1ERDMj3Tns4kuzM4MwIiBMhH04Brzk2h1UdhRkDRxdWutp16Gusi4tB7VV6ixCuaIB1V+wloqRYtoolbPBf2bI5c0fxcw3XRt9s2ev0Hn5KbBkS5c3SXOhjvDEwkBmpnUhNNyfRMRzqT6gWhAZQShUZ0eIXEdA0xxL5JnLTw6EpEf4DV83oeJ9GugHPCZA9qorTec/7Ag9EfNm1tNgfC3c/K+0eiysj0oXAiHW/JZNJ9ID4APSGRjrey7uxYTl42wAjEeYvxvRLylQ+4sqMkNv874sS4UOLO4Dc6XmnignV9b0iDUweCiXS8pZJXnQMq9qZwMP9izx6icJVA/vfCoqsa46mMSExBOriy6Z3VR2JnxKTVm5Rzxx7fdVVd6ODT0uDUgWAqk+jEGKfhyAPKHZvDVzRbfSfgjcWI6GrovVqZNM8W0KIo1o3w5ujlzcHup+SR6Z5wBoNhHKAy8Wqzec42aEeIwoyAnl9gOki8BM4MyxdJ5UTKLJ8x/c+Ga2rbh31KMj3dBkcZsBoQ63mp4E0hXUPEjp8Oes96P12DDpuhWXRZ3Cw5mcT/qL+6bt9wUMmmeQDAqsLBsd2e/IyOV7Rt0FVbz3r/sbvbXcZvwexgiXbXubRpdEeIwneGLu6MHnpBgm0rgNWOicTgTquPxIxrjplfmq5BZx/PSuYO8G0v9u46UtsGrJL42T3Xxg5PtvswtBcA9IHkSs9hptKJ/bSIUpwbLX6mkBaIWvBtL45Q8bKW9lnVj02JHXd5plMTDfB8APSlVjPtKx3lZ3BmYr36mTllKGeEwrRAXD9/dCUhxLrQDLQzFEeoqr3njgZ7npJTmcR+eDQAuqwfje72pNIrXzu9L3R5i9U3V7AYEd1zjDVe6OdwO3iCa8ujJuz0njMe6nlGSmeS3fBIAHSMuHLgYQXrYHXZlgJ7CrP//Pox0kH0MLgzLM3hwBGmMC9TKbnzAfAIB5QFhuJdQXHfJlUPr0Xe/5CSf1No9VGYFohdxxrH2W3xQTvDYqIqq09zOXipeW0IbvwA5YQX99Ch/SNRRQ+vpfGwKOf3YvEqiRmR6LVJJ71vrli9jRAjQv1qMTd/1TET3hS9pH0o3hWE4w8oJ2Qy6cNW9znjWUPEFUfvRIvXnleOympRcp1rjalQd/sPwftqYWJlD1LY4jk9ubP3VQmD+yWgDFHft01ar5w/oJfXM5EY3GnJ78VyaY4kjLDmS4XSwdug/2phUdVj9b/YPZ2caIRjDyhTpG/2nj/w5t6bfXp5Qcn0dFvO6TbftYEt5NpAC4QEHe6FSQsI2/wUtqimdF3fGxIGlwRAGWNoqiu4sekMfHhyn19PKSojonFOJuf6uwvEuqPEyiad/T5aIPq0IhcIVD6dURPeFP32vqnkSB0cd0C546HoTxusXlNaZ5uGZjZ6vthtVucKVpVovCe/fnUen7cfDFJAzTTPGTXhbe0bfGCMB6gExJOj9TfvMuGHoj/T3dTFfaHLm/ObR+2azcwLRwuWy3gVNIwenQJavCQ2e0jcNuRT4JgDKgXP774hfNveM3B93zZJb6/tqfo/xPLLUrYAhWkBeeYOPIN/+xGxsocofEvos4fHZwZicMQBlYKZ1GSzxautbNPjpdHrLU5ffqeCxUtiWiSa828Id4B/u5YGOqMm/MDOy1tSaZj/A1QWXmk0BzbUn47v8H1jP9bhxZHnwGPKPL5YfTb3mvcaDAaDwe6+6N2MiNotHii4V8dM+PnG66JQrwJUYnRlVklcXWvC3s4nZD2+xvq+t+Z0u2ubwIm4XTrzw9noijLSIjG9qjvcXZpYvdl6sw9DywKgAvFCw9qwM2LCVh+FJxPDu/T4GvcNh5T8WWbWjTArIcwKBJUtuKOLLN7Ve0PIZsVK6tiswrEGVCKmkqP1Vh+FLT4S3+r9ShfWgTtDIfRNtM6pYbEurY7F70D/qTWMisRvV+sNYU6sfDoNkQGAYuCx2qvr7EFt0Ym/60ndnvWR6Z6ILUAdNZ7DiAjbghReK6CLNQ93Ad2yKm8Is2Ll6XwMxApQsRia6go6whRm3Sh3O6hb19up5EhdoWzPEaYwswNdkbshfGE1Dj1Xx0zY1bEJ0kBAJSN5V+BbHVYfia0+Et8bvKxVzy92JjXZzElzBcsZMWG6Bv1aW+slEMFV5eEuaGL1WostAOcZUMnYO+iRq2MmTAsIV0dNuHlA0nU2kUon9jMCSucvo3BGTJgV0V8NP9hieBctEvvNq6SlgRa0N/+Put/u1GvhEQAoBjKZ9GGn59xRs0piTkLYLJ8xnc6kevT8mtOZVA8jEnGtlWFWShihMONCdgPrIU6iBTSRPyFdsY4LQQrfE/5WRwZnRuBIAyoZ2/fe5nVGtejKEaLwi3voUBmI7CAtEiN83vYcR5jCjIu4y8AKBMVKcz1oKjENtHhIXO0/dzSZnmmH4wyoZEwlRuqsfurIc20PUXhkuieie8HCmTFGRH35gmUPUpgWyMcNVTXGz1h9c68RK42cpA1RDse7w3CcARWO9KbQZa22AKX9UHtJfKdfn6M4BRBnRHQw32JGey/ESwZaRN+xr4IerOqYCdf3vQXtC4CKR2O/IFXHTJgR3rlgah5wl8vZT9IisS+/pm71UZgWie0GWkC/quQerFyR/dn666JwlAGVjmR6psOqnjGdq0nzMontyjkTmUz6cLlEh3f4v9Fh8ZJzHBsYAXkMjIhuqljByobDG3znD5TRFwYALBmP1169yxGiMC284zyil72DC8W9oe+25QuW2UNiVkQRAy0Sf6vUsRzWpRXrhuMHQ3CUAZWO9qGgXB0zHTU0bFZM6WR6uq2sBCt4aescwVJJTAuowcAI6JFK7HKnBYSdMROuab/bA0cZsBpSQZv3Y1Ozb9ccYQo/v/uGsrtk2hy5otnqowoIFrHXwAjEK7YK7HK3eEl8i+8Lh8DXCrAa8EjtlbuPpILZ7MLqp/BUovyWphQSLF6ryR0wMCIh5YdflTDUbA9TeGgKtjEDKh+7+7YflQrm+pYeq726LDc8HVOwaIHYWVFjOYLWxv9Cw1qoWwEqHlPJ0QaLx5TON9+0Byk8NtMfrTzBElFbfldpOZOXSWzznBVPpROdcJwBlYwMzkzcEfxqp9WvNYjO9o76e/SnDeX6vu4Nzy26z0oJUW/FWCNnm+Si3S9KcJwBlY43W9b7ck4M+Xv8RqYPle1Ex93BS9qOJVijlWKNbPaQeIP3M/0ZnJmA4wyoZBwY2ak4o3NH6uxBCj8cu3J3Gb+19B3+b+yf09agkJgRUKuBEdFMxYzfRE1431AIlp4CKhrTqYkmm+eMmTmlHJc2czeRGKgt47eXpAWiI7+unm1raDRUUhvDRt+XD2KMZ+BIAyq4bjV2Z+hrB7LbkI++bApT+On6a8t98e8kI6Lu/OFnrdOdiFWMYDmjJnxgZCdEV4CKxgt71oZyHlf5q7AsXhLPpCaaylyQR2gRHc6PHrOzhN6KECyLh8QbvRd2Q3QFqGTsOvSGlN9vNXtb+RvN631lH0Fm0odpAY3lG4pqbg1ou6FSrGOaDrvBOgZQsRiY7AjYgxRmC9zoczKJbepZ8XQm2VXu7zOdSXbRApHIt0i2BSjMiujFshcsXiGxXTl3NIMzQ3CsAZWImdRks8P78UmzSh7Vb1WJrTzJ9HQb65rrgGwPUpiuIR410AJKlHvtSu54EGpXgIpEJpMevD140cE5RfZZtZ2/+b7QWymtPPHk+B6zWngvIS0QtxtoAY2Vax8W69YirEQ63gpHG1CBSD6+66o6R6SwWOV+sHvHW7yV8obHZvqjVv/c/jKH5tnHGWgB9ZVrp7stQOFHYlfVwbkGVCLebNU62Rmh8FSHPVS+A87zoX+y3VfI7iq7SPWPBkZE7eU6S+iMmPDBsd3gdwWoOIQPbpEL3gjOWqpiUU2pRDreUknve/9IVHFE5gqWI0LhKoH8bwMjELvK0a2Bl0nskM8dg2I7oNLQPhRQnBHTvKv36Gyh3d/5ZMXdjO/qfUMqZNluD1G4ym38uoEWkFKOfliOMIW3NsOqeUBloX+i3WcLUHjexcYCwlYfiW/1f7kbYzxZae9f3v/gnAiLdWmXC7yE/tPACGhrOTqOOsIUHpjqAMECVAzGpvujNt/pyYLtC7P3FIQoPFKh+zVfbKwK5tewWLf2vs0uRBhYkXjUHqTKLh20y5+AdBBQMZhKjDY4vB+fsHjJeW8E6WxH+2stDl+lfg6P1F6525oXQHEyiWkBTbIe4iQD60K3lNvWHHuIwlsaboANzoCKQCIVb9kQ+PSQ1T9/+0JuBG2D7/zBTCY9WKEfRfp2/1c782vqvEJiRiB6r3+L+BcD7SLXltteQmfEhPePRKFZFFD2SKZnOjYGPtc3X2PobOsYR4TC/RPtFRtdzTdHqNXYiRaDwWAwMCK6upwEi3UjzElk2e1aAwDykUonOm8LfanbHjy2WOVSwVebKvuSKZGOt3LS3LEcLUUk/AaDwWCga4hLyykltHhJfIf/Gx0Y4zQceUA5i9VdkYs7jydWue3lf/Nd0F/pNdvR6d6oLUAVLAHRInpVEyyR+qy1jG4JHWEKb2vd6IUjDyhnsbozcnGnPXQcsZp1KzhcobeCs7FvODRv0yjjIh4wGAwGA7vddHqhMEy3ghWhcOfoLhWOPaDSxSrXILpahvt9nU/IhcpTzogJMwJh1gRLOPVDtEBM5fvP6LJ+5dJuDMrdVRGwOpFMz7TfFrqwe6FiZQtQ+J7wJW14lRhTPttwfaRQi5UjTGFGMF5lMBgMBrv7onfTAurK91DWq/dVtXz+IGzFAZQbEql4y8bg53ttweOLVe6sW7ynJ2ZSk82r5TO6K/itfXOmblxH7JEvNuRACyhSDnUsm5/Cj9b+sh6OP6CcMJUcbdgQ+PTgcVsX8lx0V9MGqEwm3ce7zpyT6XFuhGkRpapk6owjgsUIxCuFLB30WL9y7dsE9StA2WBsuj9a7f/EhNVPLkisaAFhZ8yEX2kyr6qxs6nkSJ3FO9e4j1dJzIhEr0066X2zIizi9nLoxXJGTLh10APe7YCyQP9Eu8/qPT15rHGbQnWrO4Jf7VxtZY8DozsVZ4EbQm35BBEzzEZVDfqDI2wqC8O+1XC9Cyh/7BsOKVY/lV0AuoDzLWTrVp7TE6vxUsndsVkt1NKQ7cF6MU+wjF+3+ubakuqvwx3hSjMsA1Qeag+9IjnCJs0iRlj4DbgzYsIHR+tXZcnj4ejPGgrV0Z1RE2YEYv1RgsUKBMWIKKFnq+Tslz+eyaQPwyMB0CnSQsddnupY1nxvgWLFCAhX15qw1PHAqpyPzeDMiEP+5Egh52NHiMJVgvHKowTr+reIf2EE1Knn1gaz58gq+iQ8FwA9PnTPNl4brY6ZFpWp0IJ2mfT4rqvq8CodN5uv4M66NCspXjR+2pAPWiSkQnM8eqHVR+HN4SugYRSgOyTTM+33136vzRld3PNDC9pg762BLx7KZNJ9q/Xzax30FOxw5xUS0wIa/Our6INzBUtA9xWq0uup4P5U3R9i8HgA9ISxmf7oBv+nh+zBhfdY5dJAs0pim+fMmXhyfM9q/gxfbTYHCrVVZWtaYUMhVAnENQ4dC5Y9ROFXm81giQzQDTqGQ4rFQ+KFti3kN0TaQxTum2j1rfKPMbnR+6XuQotwHJHstudCoCXi82bP3DxSTy4NNe13wkovgB6QVg48qDgjJswv4iZw9rhJdcyE63vfWvU9hYl0vIWXyYLmC86ICbMC+lNBwWI9xEmMQAzrdUehI0JhT+dj0DQKWFmlyqR6ntr9213VMdOSf9yra014e9vt8OOLtX61QqUo1qVdtK0T0BcM84EWiIBeZwqdERMOHXwWBAuwYhifGYjdFvpir+YesPgznHMOfabh2hgGA0qMMcYvNdLBQvWrXMGdEcgPzCtYjEjcr9fCuzNiwtHuFyX4igErgeYBt2zxkNjqW3y96kj7QpjC98Uu25vBmTH4RDHO4MxEtXr+YKGsThsUJxTDscAIxqv0apfsjJhwbc8rIFiA5X6oRl5vtQWqo4vrXC80I3hb6MLudCbVA5/qOxGrLVB4wsYZNWFWRLceU7DoGnQ260ZpPbqPOiMmHO5+HlJCwLJhKjFSd0/0mx3O6NLnbGlB6yFc7//P4UQq3gqf6jvwdz0pz/fZ2oMUZl3k948pWFkzv3aLh9SlYHk7HwfBAiwLWgYl2aKaUjY/taQUMCdWFi+J7b6PTU0lRsHHLQ93+gsY9okIczLCtEBM8YrxFMPxwAjE83pMCx1h8MIClB7pTKrnxeYbw9WxpaeAsxtDLR5TanS6Nwqf7NGYSU00mdXCbVTZhbJhw0JA16A/6tEbyx6i8OsVvKIbsPIYmOoI3BK4oP+EL56yVjFWH4kHJjug2bkAdh56TZovHXRGTZgWiNsXJFhrd5z2CT1u0bEFKfxM/XUR+KoBxUYGZ8bkzs2qPUgtqWu9kFjZAhTuGWuEdXTz4J7gpa1WHznvGB4tou8sSLC2bDG8ixZQa6HcckWHn/0U/nvspw3wVQOKifGZgdg90W91HGkEPVGxkklsD1K4a7QOGkPnwXRqvHG+qRqtxYEYtksFBp7nQ5VAPKa3uUKzh8S3+792AEPDHaA4mPQffEK2+shczeTE00CZxLYghTtHdkKt9Rg43u1glYDeNiwGrED+t94K77xMYlogRip9XTdgeaKqTdHvtC3aaO84aaAdxGohmLnF88Ue8zydCJqQkX9ZlGCtk4iTGRFNcjKpK4tk1o1wMj3dBt85YIm1qhG18yHF6qM06xKhCGdzVs2qa7Qe0sDjYDjeHZpvQ1f2GU/TNehsw2JBC4RkC1K688Qam+6Dwjtg0Tg8tc9/R+iig0WLqrJ9VmaVxFYfhXvGmqDAvgA833BDeD7B0lJzYhfGeNF6ZWAEYt2JdPiWqnm0fSiowNcOWCiS6ZmOrXv5gD1UhBvA/KZQj9ZndXhynx8+6eMjlU508srp8+6OyLYz3LwkwaLfNp7DSaSuxnQcYQqL0DwKWGCtpGlAkJzeT0w4IsXdCKWN22gd7CPxHoj4F4hoz0tSddRUMLrN2cnQ4prPLkmwtCZSYpee7GZsfgo/UnvlbvjqAcerk2yu/f7e6phJuyYXiitWtoA2GziZGN4Fn/aCMXmz+pn++RbdZKPflh9sMbxr6YIlIIee0kJeIbFDPm8I7DkAhZBIx1u37uUDtmARi+oFLGJuj3y5O5GC/ZiLQefoTvVYWuKMmjAtolsxxoYlCxbjQp/iFR3ZJru0ukE8CYOkgHeQyaQPh3qelq3qGdOOCFWa85o133ug9vKWdCbZDZ/6opC+O3BJ+3yd7bl0sKrG+JkTEixtKzRRp6e00Bk14b2DHnBtAGCM8UzrkEfeGPhcX3XMhDmJLHpUNdvW+Nk918YyODMCH/viMDDZEThWX6fVR+GqGrQ7J1YnJFi0QFiqYyZdDUG/sGdtCI7B6sahiSbvfbHvtDmjJmxWSyRUgrbdpjpmwjvab/NimLJYEjaHr2g61s7TrFkfXxTBqnKRZ7ESSunltpBXSOyUzx/EGE/CUVh9GIp3BR+t/3mDI0zh+VKMYtWreIXE9hCFd/W+JsEnvzQcq1H0SLOohJLs9tNOL4pgZW8LVT1thbb5KTw+MwBLVVcRRqZ7wk/u/vUue4jCpT6LuY3MNu+ZMz3j0BB6IrgvdHnzsb4ve5DCdA0SZ4vViQuWy/g7Pd0Wau6jT0AdazUIVbwn/FTDb3faghRelsmL7E3grcEvHppKjNTBN7B09E+0+Y9nouCImDBdg35eVMFihVM/xIholNfJbKHFS+LbfF/thJpCBRdqpzoCT9RfVb9sQpW9raquNeF/7L66DpZFnDBmbvd/tdNyjLTdrJKYFog+m3TS+4oqWNmerCd1swLMpYXsU9C4V2mYPDhW73kgdnnzcqR++fUqZ4TC8oHNKsY4CV/FiaFlQJGrY6b5L0OybSJMDbonX6yKIliMsOZLVn9xRxxOLC2ksNB+D4zpVADSmVTPnoEd0h2hi7uckdIW0wt2rvspbPWenjgwEoPzVARkMunD1d5PjczX1Z4rtvMymaZdxnNKIlh6G9XhFRI7Feh6L2dMJ8f3uPffpzo95445oyZsXoFtTc6oCd8d/eb+KWhGLhq2t97u0QaZj92eRAtIKCRWRRMsVkB/0lXxPWrCB0Z2gntDOf364szEoYkm75O7f7vTrJLYETFhXi5dw+ex3EGroyb8RqstAKaQxcNUcqTO6qOOuxPCEaYwIxgvL6lg2SX0QUZEBVdLr5TP+73By2A5ZTlEU6mJxmD3U/KtwQt7HGGtPrUiI1/Z4WWr9/RE6xBMTBQ7u78vdFmrLXDsOU6rj8K0gPba3YZ3l1SwDAaDgRHRPc6oaXl/EY/T+T4yDRYf+qxNJbs7RkLKY3W/2M2rJHZGsl3p4soIFevSutbvj32vdSo5CgtNioxdh16Xjlloz405ab5X188nVkUVLFYgz+RklJzPhGsl1n89HAPLGf2kfOnB3okW78vNdMiqnj3hjFLY5qdWdID+yAbmEIXlzgcUDFMSRcdMarLZ6jk9yUnH/kEyqyRmXOiwPUj9+7IIVrb4/opullS4tG5ZsE5eWZEamOrwv9Hq9K/3njfoCFPYHqLw8Q7vcp0PZ9SENwY/3zswBUtNSxVM3x+5vNkWPI6lj6BFuFU1xIZjiVXxBctFfNHq04/tjC1A4c3hK5rh3CyrSPX1TrR4X2+1+au95w3aQxR2hCmsl+ZiWtAsSxxhCr/R5vRnMuk++NZKg1DXs/JCUkFeJjEnofF1EnHysgpWNspS7EF92c4cHN0NW0tKiFQmsf/AaEx9ofHGsFM9dywXSenlEmZ2x7ozasK3BC7o751o8cE3VzqMTfdHbYHj3woeia4EtOl4YlUawRLRd+xB/TSSmj0k3uC74DD4FRUVyenk+J6G/m3S43VX1ZvlM2acEQrbgxTW0wq42Q+F1afVqra1b/ClM6le+ApLGGVn0n23+C/ot3iP35bCySTmZGKKESjjighWdlwnohcXBzrb6r+j7U6Isk7sEB4eincG3B2b1LvD3+gwe0jsjJqw1U9hvVy0FPStkrRf8Luj39w/FO8KwjdZejxZ97udjojp+JuIhOzNYA1x/0LEqmSCxbrI7x/L62YlUgF7kMKwyWRxUdRMarKpdUiVn99zXdShnjtqD1HYEaGwxaMje+zjtLaYFVMq3POsnMGZCfhKSw9v5xPyQo09OZnErExOmZVT16yoYGm1LBTVjVdW9vp6o/9zfRmcHoRjNc+VTibZ3T/Z5hf33+O5O/iNDl7RoihbUD9F84V+144whZ9tvDY2nRpvhG92edA1WudxRBZQtzrqZrDwkPOyCxYrEN9z6CjKogWEHREKP7P7OoiyjtzoZYbGZvqj0UMvSI/t+sVui3xm3BHWbvXKJYrKXw1fHTPhu8JfP9A70QIGe8uI8ZmBmMVjSi90fRqvkJhzo1FOpD6iC8EyGAyGKoHw23W21r46ZsLR7helVSpQE/HkaH3jYUF6ruG6aLXnvEGbn8LOiM5rUQuoUzmjJlztO3d09+G3IP1bZiRS8Zb1/nPHFlJknx1dMYLRvhixKr1gicRXbQH93Bjm7CscYWq1tDrEp1MTDa1DHvnlZjq40feFQxbvrDRPIctPoGaP1Li1qNminp6UOzer6UyyC+RjeZFKJzpvC32x1xagjl9kzxltekjMuoieqq1nvV9XgpXty9qmTWDrK3WweEg8HD8YqkCBamwf9suvNvOBjb4Lu82qJlD2EIXNapmleceY/XOEKWz2kPjNNqd/JjUJzcErUvNM9d4d+cb+rCXMonojq3YQ1yxWrJZFsDiR+iSvkGnOra9Db/aQ2OY9c2YkfihcxkneRDw52tA65JFfbeGCG/1ZgYpUkEAVECqLl8Sv7KWDcRhUXlGxujfy7X2OxYhV1hGDrkF1Fovhf+lSsAwGg4HeQTx6POOuFRl8zYrWcLy7LCKtDE4PTiQGahsHauTn9/w18jffZ3stngoVqPzUL3sR8EoLHZpKwhKIlb5Nvjf67X2O8OIiK9alCVZVjfHrSxGrZROsdRJxMudGo3qrmeTmyixeEneO7lL1eDCG4l3BcM9z0j/qf7vLqXxy2OqjtBQvW4OqOIGaXUyXNTHmZSr9ZpvTDxHVyiOZnmm/M3xxl2ORaSAtaPblVTXEy0sVq2UTLIPBYFi3g6jS06bofJdJR5jCoe6nV/L2cCaRjrccHNvtETvuUR+I/aDZIp8Ztwe1WzxbINsLVakClTdO5YyasMNzzoTcuVlNpOMtIBUrj6nEaP0toQsO24LUorMlXiExJ5OTzNsIlYVgXRP59HsYkWiy+XVUgM9LO6pjJvxM4x9rU+lEZ8nTu0z68ERisLZ50CW93EwHbwtcdJCTSOyIZPugfGR5thmcwDSCLaB10t8evOhgff8bUjqT7AaZ0AcOT+7z271nxa0+cvGlnWwbA70DsSciVssqWNmRnW/Zg5Su0xhHmMLr/f853FXcFHEmkY63Hppo8qpdDysP7/xZg0M5d8zqp46+wXOvHoE6amlIRLvx+0f9r3cdmmjyYjDS0xUaDwuSLUBl9wUuzXqacaEGu/uid5eVYGVHdrborQA/p66lapHOM41/jMWTY4t2LU1nUj2j04fCu/vfkl9sWhvWoidNDB0RSmvSXCXp3Xy9cLYAhZ0RCm/wnT+gdD6oxFNj4A6ru0uezMTb7Rt8zqhJi/aFpX3XVh+Jq0Tjl09UrFZEsHjFeAonoZEV8/Be7PCsSuIdHRu989VRMjg9OJUcqds3EpK3tW3w3he+bK9ZOnNKeyC14vhqjZ7yHT5zTau8TKX/2XBNbff4bg9sptEnplMTTZtjl+09kbozfSQVJB4ohlitiGAZDAZDVQ36gy4L8PPUtpzZbmpx3yZ1Ymag9uBYvSod2Kw+vPNnDU7lk8MWr5bW5HqEdGEBrKcCesSErT4S3x/9Xmtd/xtSIh2HjUY6xv6RqGLzfWxqMd3r83mQsW50oMq7+I52XQlW1jNLWezV6ErPq9mD1BEnAEdYS+14uYJbC5YqUtmU2hag8B2hizt9XY8pU8nhXSAFeu+vSvVs3csHnBET5hXyhJ5N1q09L+u2E5cUS6xWVLBYgTyTU9B02c2zgTgV/ExykZQtQOFb/V/uljsfUMZn+qMY4zhIgf7RM97o2RD4zIAzQhWlDpy9FXy4mGK1ooKVTQ1vKovUEFiwDSFXk7L6SHxn6GsHPF0P50QKbvnKBMn0dNvLLevCjuxN7QlnPALS1re5Ufu1L5z0vooSLM0DnpAX2+IPXBlyknYYnVEtZbgvdtneSM9zUjbdm4HHv7xuAOv6XpNs3o9NFXM1HydpG5zX7lhzUbHFSheCxQoExStovBxuDVcjeVlb3uCIUNgsnzHzeN1VdU0DgjSTmmiCx75807+7wl8/UB0zae01RQwWqmtNeN0O4uZSiJUuBMtgMBiqtqPfOKMU1Id0VI/Krepa7zlv6OVmOtQ1uktNZUo/AQAoHYbiXcFH637W4Ihol0fFFCpa0PoMGRfhK5VY6UawNHdS9Hx1rPQNpWaVxNp83mxmu809q/PGL9fc54yasMVL4jsCF3e69t+rDse7gpkMeOCXO4bj3aF/1P96lz2o3dyWyq6JV9DI2h1GclUIFiOQH2Al1GEtxaxhdmuOLUjhmz0XHNrScGMw1P2ctHdQlVqHvFK05yX31maL77bAV/bn2hZYN9LfzGNR61EktgW1ehTrRvih2I+bdva+KmWtW6AeVQH19P7JVt9jdb/Ybcue/VL+4NlDFF67w/ijUoqVrgRLc3QwXmj2kKliLeOksxtUbAEKP7vnT5GheGcAH9vvOzmRGKzd1r7ew8vaA11JosUrJHZkV8c71HMmnmm4NtY27FOS6ek2eL4rpZie7msdUuVN0UvaHeESRVT5g821Jly1g7ir1GKlO8EyGAwGejuxtiitDtmc+vbQl7uWskAznhxveHjnT3Y7o6byra3l6lER7Rf2b74L+t9odfp7J1pg+3GFYSo5Uufaf4+n2vupkVxqv1ybqFgXUpdDrHQpWFp6SLx0QvUsAWFnlMJP7f5d7ARrMEmx4x7FGTWVTW3rSH9UJNcf9dVO6cBmdWS6J5zBmRF4tCsHqUxif8uQJD+088dNFq/2w7Rc+yNpQWtf4BWyh3/beMqqFqyqrR98Pyeh5qUYheVU/+ndv49ijJPFOBieA4/IzqhJ50VzrR5lVkm8KXJpa6j7aWkqAf1RlYZ0Jtl1YDSmPt3wh5hFPmNGa9xdfssmXiGx2UOmqt4ujgtDWQuWwWAwrN1x2id4lZwwexZx/SogbPVT+M7QVzuKvZvu6fo/RfTU4Mq6tffqjGq9NA/FfthU1/+GNJ2agE3HFYZEOt7SNuSVn2n4Y61FPivuzKb4K2XwmDMEWLfD+PvlFCtdC5a2vML4I/sivhjWraVDU4mR+qIXMzPpPqfnnJGVnH08SqQkhB/Z9bOGxoEaGSyEKy2KSvUOxbuCns5H5Pujl7XmFsXaAvpYdltda8K0QNy93GKle8HS5g0J60KL8I4whV9vdvhKdZAa+rZLy50a5ovUY3W/2N086AKLlgpL84biXcHQwaelx3f9st6unDNhD2rTBRavfrzUckPNjAu9vhJiVRaClZ03fLq61nTM1JB1aU2hM6nJko2MZHBmyCafPVbqwibreqeRk5NJ/MjOnzU0DYgyiFRlRE8TicGd7cN+eVvbBu+94UtbeemM6dyykSNutDp04tX6E8natTtO/jcQrGPgocin38NKyOOMzH9zaPVReFPw+yWfb9vaZPE5QqXpbcltizGrJH6w9odNDf3bJEj3ylSXMunD06mJxv7JNv+u3tekrS3mwL3hS1vtyjkTVl++4aO+b57prC87r6BOetupp62UWJWNYBkMBsON0ikf5mTUap/n5tAZoXCg6ymp1Cexa7ROcUSKO91uD2lze3eELu4M9zwHhXP9I5nBmaFkeqZjKjG8q2+y1dc0IMqujk3q07uvjd0Z+EYHI6IxXtEGx3OjXxYvWXZe/rSAsMVHYrOKRm7cjj61kmJVVoJlMBgMVW+TZ5lV8rDVP1e0HGEK94w3lXwZ6lRydHcxZg5zA8acjMZ4hXx2IjFQO89fOZPJpAeT6ZmOeHJs98j0oXDvRLNv33BIbujfLke6X5B8nU/IUscDSk37nZ639t7se73F6X+lkQu80mQOvLBnbXhLww1H8YU9a0OvNJkDrzRygdeabf439q73bWvb6K1pv9Pj7tisqgcelv1dT8nh7i3yzt7XpD2Ha+S9g4q8bzikdI7uUnvGm7yHJ/f5h+JdwZHpQ+GJxEDtVHKkbjo13phIx1uS6Zn2dCbZlc6kejOZ9OEMzoxkb23jxWo1KZbwYIwnMzgzlM6kepPpmY6Z1ETTRGJw51C8K3hwbLdn76Aihw8+J9Xsu8uzpeGG8MOxnzXc6vtKJyMSQ4yI0hbvO6KU6yy3eDRhKvu51OxCFouHnKnaTnx1pcWq7AQr2wn/RbOHnLLMNhtzaSnh+MxAtNQnPJVOdNAiSnHupdenOAnFeQVFeJW08Qr1WVo69bSZ1ERT32Srb3ffNkncd4/6XMP1kc2RK5o2+i86yIjECCOitFnVxoxy23ecEZP2oGTTixxzEZs9RGF7cB7O+v/M/m/f+bPf+fM1Ukf9PfaQdrVuC1DY6iOzw6/vpDe0QCRogZhiRGKUFtAgIxK9jAt13er7StddgW913BO8tHVz5Iqmh6I/2fNY7VV1T+763c6n66+Nbmm4IfxSIx18tdkceL3F6X+rdYN3W+tG7/bW2z3ivk2qq2N+ivs2qUL73Z5trRu9b7dt9L7e4vS90mwOvLBnbejZ+uuiT+z8zc6Hoz9t2By5ounu4CVtt/q+0sUIRA8jEEO0QEwxAkrzMoktPm0syxGe9RmHtc/N6teG5Hk5Wwyv4M3bvEJiq4/E67YTP9SDWJWlYGl2NMT3LB4ybVa0Hq1cd/dkYnjnMtzoHGQEYmapiyZYN0qzLmIfLaI3GBcSGJHooEWUsvreeUCOPBy+dx4Ozo30+4vt0l4b69JuNVm3lupykvbaeUWjWdWEzeLVaPWR2OqnsM2vCZ9tIWK6CM4W7SPi6tcE1uLVXotZzQntrM94tdscZbeh24MUXluDfm0AFEO0jFceWd8uakXBkXhPsOQ5RHq6nXWh9JKvmoV3OtOtPu1hqehfamDZiRUna+WKdTuIa0FpirwuzB6icG7F+76hoFxqwRqfGYha/RQcbGBlilV24W+VgG4AhSlFTavG+FdHmMLVMRN+s2W9p9SC1XhYkPQ8VwgELl2stKH5qhojDcpSSncHEd108y4TXu85rx+XeNj379Er60ruMQQErlAayNSgm0BRliXSItbe2nwG7h1vLlmUlUjH9/IKmVr1a+eBFXcbaA9RuEo0/gWUZDkjLRdhXq9ecKhUUdZrTTafI0xVtHUycPWQzvZZWf0UrhLIa0BBlhkYYwMjEOZoz0vuYovV6HRf1OanYC09sGLEKtvakVq3Hf0c1GOFBAtjbOifbPdNJAZ2Fq/3KtW9wf+Z3mKvRgICV0qsrH4K8yo5UVWDvgvKscKChTE2zKQmm5Lp6fYiiNWheyOXzDvDCASWm1jZQxQ2q+jQjduIz4Nq6ESwMMaGVDpxIGvml17a3OBI/R3hiw/YQyBWwMqgM2rCvEruqaqhzgDF0JlgYYwNrECe2TTgkiZmFp4ipjOpQ6GepyVeJtNWPwliBayIjd7VtSbMyaT451dO/RCohU4FC2NsuGm7ac2WhhuDzzT9LtY3udeTSicO5N0kptOZ1KHh6e6Q2HG34lA+MZxz+ISaFbAiGkJjJsxKxKM/2GJ4FyiFzgXrSLQloUc2Np2OOQnhv6lf6Lov9P2mzeEr9tzq+8p+RkSTOScEXobiOrBybgKtfgpzLsSAQpRjr5aAfmNWyVR1zJR1DNAcEZbqvgAE6rq47iGHqkT0X/DklzHWvY2+YFbJNmcURmyAFVqvipkwr6Cda7cZPw5PfAXg+m0n/z9eQa9Xx6BWBaycqIpXtL0AvIyeWvvUyf8GT3qFgZNJa85MDm4DgeUsVrYAhXkPmWDdxPXwZFcw6Br0bV5FB8A2BliOt4BsLgVUyT10DTSDrgr85TXqI5xCvuyMmjCvQLQFLJPh5SPLTMjHr/vnB/4dnuRVBlYy/plXyQl7CAryQH3TEaEwr5IDrIv8JTy5qzlFfOu0c80qUqpjJszLEG0B9VlY5xTyrRveJCh4YgHZgjzieBVNQ7QF1FNUZVbRKCsZ/wxPKGAOGIE4j1eRnFshD+0PwJWqVTkjWlRV9TZ5FjyZgOPUttBfzSoadkayJn4gXMDluAF05xwWUC8jEf8DTyJgwVi3bY3JrKAtuQ3AIFrAUjK3+JWX0RM3vrHmo/AEApYE3k1eblbIBm38AdJEYHGjKrOqFdXNKhllXeS34IkDnDB+9cSa93Iq4ngFDTujJm17MwgX8IRsYI6kf/2chG4AKxhA8YvybyPEKeSjvKo18MGSCuBSOtUdYQrzCkpyCnl/VY3xVHiyAKUtyrvR58wq+YYtQGFbENoggAtzVbAHKWz1kdiskC8zAnEePEmAZb5NJC7hFaTaQxSGDdHAeQvqQe2HjVdIl1khvgZPDmBFwcnoB7yCAiBcwNkRlS1AYXuQwryKVFYmvw9PCkBfwiUZf8QppN8e1A4q1LhWH9ls6qdFVMjDK+Tl8GQAdA3eQ11mVkjB4s1O14Np4Kq49XOEKWzxkphXUA2vEJfCkwAoK5gVdJFZQVs4GSWOjPvAA15RPDKcLKOEWUFbGBe6CE4+oKxBu4zn8Ap5JyejXmdE62iGdLG80z6rn8LOKIU5GfXyCnkn7TKeAycdUFm3isKpH+JU9EdeQSGLj9Q8jhSIusopmnJEtNYEXiYjnEJcywqwqBSwStJFXkaPcDLqd0S0Ii3nBlHQXTTl1m77nBEKczIa4GTycbOELoYTDFiVsEtnfpj3oN/wMimwbq3WZfVT2vgPCMbKpXw+CjujJsxKKMXLSOIU8vecSH0ETiwAkAUnER/jVZLmZBTMzZqBeC1fJJUTKV4hMSeRMV4hLRYP1KYAgOOLl0p9klMIMyehAOtGKWck24QoQ82rWORkUkv3otq+Sk4iYpyKnFYPcT6cQABgibDI6GxeRtdzMrmNdRND9iCFHREKW3wkRF+LjKIsXq1w7ghRmHWjcU5CIq+Q6ziV+iScNACg2DUvH/UfnIr+i5OI+zk3qmPdKOkIU0eaFjkJhOkogcquxnJEqGwUhZo4iXzUrJD/TUunngYnCgBYzujLS57FK+hqTiIfZd2onnWhGXuIws6ICdsCFDarqyMKY11a24HNr93oHbH/caG9rJt8lpPQHzmV+uQW8J0CAPQDs3eNiVeIH7IS2si5kci4UDcnIZwTMXswG4nJZFk2r7IuhDmJxGYPeaTdwBGmMK+SmHWhflZCHs6NNrES8UtONX7c7r7o3XAqAIAygU066X2cSn2Sk9HPWTf5N9aNXmNcRCMjojGzSh4RMkdYc5rQZuG01HIlBI11aakcL5PYkhUlR/id12jxkphxEVOMC7WxbrSDc5N38TL6DSuTF7Ae4iT4xgGACgPGBoNdIk5m3ehzrNt4JesiLKyLeJx1I5F1EXsYEfUzIkqY1aMFIycaORsdq18TELOHxGZVEzpezqOi/W9mD4ktXhJb/dp/aw/l/txZghmksMVDYkZEaUYkhhgR7WVdSGXdxNOsG1WzEvo1o6CL7B7KCJETAAAwGAwGgz16yr/yivEUi4zO5tzGC1kX+X1WQr+ma4i1jEhsoEViMyMSzzEC8RYjIIURUJQRiT2MC7UwIjpAZ8kIqJMWURsjEE2MSNQyIvIyItrOCMRLjBv9nRXRrYxI0qybuIYRiB9ybvIrFpk61y6dfppNOvt98E0ACuH/DwBbAHAQftvIzgAAAABJRU5ErkJggg==;fontFamily=Noto Sans JP;fontSource=https%3A%2F%2Ffonts.googleapis.com%2Fcss%3Ffamily%3DNoto%2BSans%2BJP;" parent="1" vertex="1">
                    <mxGeometry x="257.26731159554" y="397.248322147651" width="44.29530201342282" height="44.29530201342282" as="geometry"/>
                </mxCell>
                <mxCell id="64" value="Log4j 2" style="rounded=0;whiteSpace=wrap;html=1;fontFamily=Noto Sans JP;fontSize=18;fillColor=#85D2FF;fontColor=#000000;strokeColor=#85D2FF;strokeWidth=2;spacingLeft=15;fontSource=https%3A%2F%2Ffonts.googleapis.com%2Fcss%3Ffamily%3DNoto%2BSans%2BJP;" parent="1" vertex="1">
                    <mxGeometry x="400.00000000000006" y="341.84000000000003" width="138.79" height="30" as="geometry"/>
                </mxCell>
                <mxCell id="65" value="MyBatis" style="rounded=0;whiteSpace=wrap;html=1;fontFamily=Noto Sans JP;fontSize=18;fillColor=#85D2FF;fontColor=#000000;strokeColor=#85D2FF;strokeWidth=2;spacingLeft=15;fontSource=https%3A%2F%2Ffonts.googleapis.com%2Fcss%3Ffamily%3DNoto%2BSans%2BJP;" parent="1" vertex="1">
                    <mxGeometry x="564.42" y="230" width="138.79" height="40" as="geometry"/>
                </mxCell>
                <mxCell id="62" value="Spring Validation" style="rounded=0;whiteSpace=wrap;html=1;fontFamily=Noto Sans JP;fontSize=18;fillColor=#85D2FF;fontColor=#000000;strokeColor=#85D2FF;strokeWidth=2;fontSource=https%3A%2F%2Ffonts.googleapis.com%2Fcss%3Ffamily%3DNoto%2BSans%2BJP;" parent="1" vertex="1">
                    <mxGeometry x="223.21" y="231" width="140" height="40" as="geometry"/>
                </mxCell>
                <mxCell id="71" value="Commons Lang" style="rounded=0;whiteSpace=wrap;html=1;fontFamily=Noto Sans JP;fontSize=18;fillColor=#85D2FF;fontColor=#000000;strokeColor=#85D2FF;strokeWidth=2;spacingLeft=15;fontSource=https%3A%2F%2Ffonts.googleapis.com%2Fcss%3Ffamily%3DNoto%2BSans%2BJP;" parent="1" vertex="1">
                    <mxGeometry x="565" y="341.84000000000003" width="165" height="30" as="geometry"/>
                </mxCell>
                <mxCell id="63" value="Spring Test" style="rounded=0;whiteSpace=wrap;html=1;fontFamily=Noto Sans JP;fontSize=18;fillColor=#85D2FF;fontColor=#000000;strokeColor=#85D2FF;strokeWidth=2;spacingLeft=15;fontSource=https%3A%2F%2Ffonts.googleapis.com%2Fcss%3Ffamily%3DNoto%2BSans%2BJP;" parent="1" vertex="1">
                    <mxGeometry x="729.4000000000001" y="200" width="140.6" height="35" as="geometry"/>
                </mxCell>
                <mxCell id="67" value="H2 Database" style="rounded=0;whiteSpace=wrap;html=1;fontFamily=Noto Sans JP;fontSize=18;fillColor=#85D2FF;fontColor=#000000;strokeColor=#85D2FF;strokeWidth=2;spacingLeft=15;fontSource=https%3A%2F%2Ffonts.googleapis.com%2Fcss%3Ffamily%3DNoto%2BSans%2BJP;" parent="1" vertex="1">
                    <mxGeometry x="731.5600000000001" y="250" width="138.44" height="35" as="geometry"/>
                </mxCell>
                <mxCell id="73" value="&lt;font color=&quot;#000000&quot;&gt;アプリケーションコア層&lt;br&gt;&lt;br&gt;&lt;br&gt;&lt;br&gt;&lt;br&gt;&lt;br&gt;&lt;br&gt;&lt;br&gt;&lt;/font&gt;" style="rounded=0;whiteSpace=wrap;html=1;fontFamily=Noto Sans JP;fontSize=18;strokeWidth=2;fontSource=https%3A%2F%2Ffonts.googleapis.com%2Fcss%3Ffamily%3DNoto%2BSans%2BJP;fillColor=#FFFFFF;strokeColor=#000000;" parent="1" vertex="1">
                    <mxGeometry x="383.15" y="135.57999999999998" width="160.06" height="196.11" as="geometry"/>
                </mxCell>
            </root>
        </mxGraphModel>
    </diagram>
</mxfile>